<mxfile host="app.diagrams.net" agent="Mozilla/5.0 (Windows NT 10.0; Win64; x64) AppleWebKit/537.36 (KHTML, like Gecko) Chrome/135.0.0.0 Safari/537.36 Edg/135.0.0.0" version="26.2.8">
  <diagram name="第 1 页" id="WPSmUxscUsc0yfA4fe-j">
    <mxGraphModel dx="1207" dy="807" grid="1" gridSize="10" guides="1" tooltips="1" connect="1" arrows="1" fold="1" page="1" pageScale="1" pageWidth="1169" pageHeight="1654" math="0" shadow="0">
      <root>
        <mxCell id="0" />
        <mxCell id="1" parent="0" />
        <mxCell id="6o1rjcuHU60eiY54TzUB-4" value="" style="rounded=0;whiteSpace=wrap;html=1;fillColor=#dae8fc;strokeColor=#6c8ebf;dashed=1;dashPattern=8 8;strokeWidth=1;" vertex="1" parent="1">
          <mxGeometry x="700" y="150" width="330" height="500" as="geometry" />
        </mxCell>
        <mxCell id="6o1rjcuHU60eiY54TzUB-29" value="" style="edgeStyle=orthogonalEdgeStyle;rounded=0;orthogonalLoop=1;jettySize=auto;html=1;fontFamily=Helvetica;fontSize=12;fontColor=#333333;" edge="1" parent="1" source="6o1rjcuHU60eiY54TzUB-25" target="6o1rjcuHU60eiY54TzUB-28">
          <mxGeometry relative="1" as="geometry" />
        </mxCell>
        <mxCell id="6o1rjcuHU60eiY54TzUB-25" value="Spark加载HDFS数据" style="rounded=1;whiteSpace=wrap;html=1;strokeColor=#666666;strokeWidth=2;align=center;verticalAlign=middle;fontFamily=Helvetica;fontSize=12;fontColor=#333333;fillColor=#f5f5f5;" vertex="1" parent="1">
          <mxGeometry x="805" y="190" width="135" height="60" as="geometry" />
        </mxCell>
        <mxCell id="6o1rjcuHU60eiY54TzUB-32" style="rounded=0;orthogonalLoop=1;jettySize=auto;html=1;exitX=0.25;exitY=1;exitDx=0;exitDy=0;entryX=0.5;entryY=0;entryDx=0;entryDy=0;fontFamily=Helvetica;fontSize=12;fontColor=#333333;" edge="1" parent="1" source="6o1rjcuHU60eiY54TzUB-28" target="6o1rjcuHU60eiY54TzUB-30">
          <mxGeometry relative="1" as="geometry" />
        </mxCell>
        <mxCell id="6o1rjcuHU60eiY54TzUB-33" style="rounded=0;orthogonalLoop=1;jettySize=auto;html=1;exitX=0.75;exitY=1;exitDx=0;exitDy=0;entryX=0.5;entryY=0;entryDx=0;entryDy=0;fontFamily=Helvetica;fontSize=12;fontColor=#333333;" edge="1" parent="1" source="6o1rjcuHU60eiY54TzUB-28" target="6o1rjcuHU60eiY54TzUB-31">
          <mxGeometry relative="1" as="geometry" />
        </mxCell>
        <mxCell id="6o1rjcuHU60eiY54TzUB-28" value="特定模块 定制化分析" style="rounded=1;whiteSpace=wrap;html=1;strokeColor=#666666;strokeWidth=2;align=center;verticalAlign=middle;fontFamily=Helvetica;fontSize=12;fontColor=#333333;fillColor=#f5f5f5;" vertex="1" parent="1">
          <mxGeometry x="805" y="280" width="135" height="60" as="geometry" />
        </mxCell>
        <mxCell id="6o1rjcuHU60eiY54TzUB-34" value="&lt;font face=&quot;Verdana&quot; style=&quot;font-size: 15px;&quot;&gt;数学&lt;/font&gt;" style="text;html=1;align=center;verticalAlign=middle;whiteSpace=wrap;rounded=0;fontFamily=Helvetica;fontSize=12;fontColor=#333333;" vertex="1" parent="1">
          <mxGeometry x="750" y="330" width="60" height="30" as="geometry" />
        </mxCell>
        <mxCell id="6o1rjcuHU60eiY54TzUB-35" value="&lt;font face=&quot;Verdana&quot; style=&quot;font-size: 15px;&quot;&gt;文字&lt;/font&gt;" style="text;html=1;align=center;verticalAlign=middle;whiteSpace=wrap;rounded=0;fontFamily=Helvetica;fontSize=12;fontColor=#333333;" vertex="1" parent="1">
          <mxGeometry x="925" y="330" width="60" height="30" as="geometry" />
        </mxCell>
        <mxCell id="6o1rjcuHU60eiY54TzUB-43" value="" style="group" vertex="1" connectable="0" parent="1">
          <mxGeometry x="180" y="150" width="250" height="500" as="geometry" />
        </mxCell>
        <mxCell id="6o1rjcuHU60eiY54TzUB-2" value="" style="rounded=0;whiteSpace=wrap;html=1;fillColor=#ffe6cc;strokeColor=#d79b00;dashed=1;dashPattern=8 8;" vertex="1" parent="6o1rjcuHU60eiY54TzUB-43">
          <mxGeometry width="250" height="500" as="geometry" />
        </mxCell>
        <mxCell id="6o1rjcuHU60eiY54TzUB-7" value="" style="edgeStyle=orthogonalEdgeStyle;rounded=0;orthogonalLoop=1;jettySize=auto;html=1;" edge="1" parent="6o1rjcuHU60eiY54TzUB-43" source="6o1rjcuHU60eiY54TzUB-5" target="6o1rjcuHU60eiY54TzUB-6">
          <mxGeometry relative="1" as="geometry" />
        </mxCell>
        <mxCell id="6o1rjcuHU60eiY54TzUB-5" value="&lt;font face=&quot;Helvetica&quot;&gt;Cron 实现定时采集&lt;/font&gt;" style="rounded=1;whiteSpace=wrap;html=1;fillColor=#f5f5f5;fontColor=#333333;strokeColor=#666666;strokeWidth=2;fontSize=13;" vertex="1" parent="6o1rjcuHU60eiY54TzUB-43">
          <mxGeometry x="60" y="40" width="130" height="60" as="geometry" />
        </mxCell>
        <mxCell id="6o1rjcuHU60eiY54TzUB-9" value="" style="edgeStyle=orthogonalEdgeStyle;rounded=0;orthogonalLoop=1;jettySize=auto;html=1;" edge="1" parent="6o1rjcuHU60eiY54TzUB-43" source="6o1rjcuHU60eiY54TzUB-6" target="6o1rjcuHU60eiY54TzUB-8">
          <mxGeometry relative="1" as="geometry" />
        </mxCell>
        <mxCell id="6o1rjcuHU60eiY54TzUB-6" value="&lt;font face=&quot;Helvetica&quot;&gt;Request 获取请求内容&lt;/font&gt;" style="rounded=1;whiteSpace=wrap;html=1;fillColor=#f5f5f5;fontColor=#333333;strokeColor=#666666;strokeWidth=2;fontSize=13;" vertex="1" parent="6o1rjcuHU60eiY54TzUB-43">
          <mxGeometry x="52.5" y="130" width="145" height="60" as="geometry" />
        </mxCell>
        <mxCell id="6o1rjcuHU60eiY54TzUB-11" value="" style="edgeStyle=orthogonalEdgeStyle;rounded=0;orthogonalLoop=1;jettySize=auto;html=1;" edge="1" parent="6o1rjcuHU60eiY54TzUB-43" source="6o1rjcuHU60eiY54TzUB-8" target="6o1rjcuHU60eiY54TzUB-10">
          <mxGeometry relative="1" as="geometry" />
        </mxCell>
        <mxCell id="6o1rjcuHU60eiY54TzUB-8" value="&lt;font face=&quot;Helvetica&quot;&gt;ip池+多Session&lt;/font&gt;&lt;div&gt;&lt;font face=&quot;Helvetica&quot;&gt;绕过风控机制&lt;/font&gt;&lt;/div&gt;" style="rounded=1;whiteSpace=wrap;html=1;fillColor=#f8cecc;strokeColor=#b85450;strokeWidth=2;fontSize=13;" vertex="1" parent="6o1rjcuHU60eiY54TzUB-43">
          <mxGeometry x="36.25" y="220" width="177.5" height="60" as="geometry" />
        </mxCell>
        <mxCell id="6o1rjcuHU60eiY54TzUB-13" value="" style="edgeStyle=orthogonalEdgeStyle;rounded=0;orthogonalLoop=1;jettySize=auto;html=1;" edge="1" parent="6o1rjcuHU60eiY54TzUB-43" source="6o1rjcuHU60eiY54TzUB-10" target="6o1rjcuHU60eiY54TzUB-12">
          <mxGeometry relative="1" as="geometry" />
        </mxCell>
        <mxCell id="6o1rjcuHU60eiY54TzUB-10" value="数据-清洗与结构化" style="rounded=1;whiteSpace=wrap;html=1;fillColor=#f5f5f5;fontColor=#333333;strokeColor=#666666;strokeWidth=2;fontSize=13;" vertex="1" parent="6o1rjcuHU60eiY54TzUB-43">
          <mxGeometry x="60" y="310" width="130" height="60" as="geometry" />
        </mxCell>
        <mxCell id="6o1rjcuHU60eiY54TzUB-12" value="SQLAlchemy 导入MySQL" style="rounded=1;whiteSpace=wrap;html=1;fillColor=#f5f5f5;fontColor=#333333;strokeColor=#666666;strokeWidth=2;fontSize=13;" vertex="1" parent="6o1rjcuHU60eiY54TzUB-43">
          <mxGeometry x="60" y="400" width="130" height="60" as="geometry" />
        </mxCell>
        <mxCell id="6o1rjcuHU60eiY54TzUB-76" value="" style="shape=image;verticalLabelPosition=bottom;labelBackgroundColor=default;verticalAlign=top;aspect=fixed;imageAspect=0;image=data:image/png,iVBORw0KGgoAAAANSUhEUgAAAMgAAADICAYAAACtWK6eAAAAAXNSR0IArs4c6QAAFyRJREFUeF7tnY211DgPhpNKWCqB7WBuBbCVAJWwW8FNBwuVfFDJfCjYs55MYr2SZcfJ6J6zB5ZrO7asx/qx44yD/1SVwOVy+SM84P0wDG+Sh8V/H8ZxvP19GAb6+w8qd71e5z+Tn/j/P6nMNE3fqnbeGx9Gl0G5BAIEpNjvQmt/BKUnKGr/RJgiLN8dHjuROyAKWQYgPlDVcRw/K5poVeXH9XolcBwapcQdEEBwEYhxHMkitLAKQK9URRwYodgckA2BXS4XAuFd5xZCON0PxW/ATNP0d2ljZ6zvgCSzmliKnt2mWnoYYfnHg///RPz0gDw5FFuwOSxBMk8JiEMhMkIEy9/TNH0R1TpJ4acCZEcwKBV729NI9jfSfQ7a20h/4p7J1n5J62RBtCpfpmla7s+cBIfHYTwFIAGMT+M4fqw4kzMEIa1Kj4mp1WrKlOy/3PZgGuy/PJX7dWpAKBM1juPXsDttycbsdoQGKaitBoG20wGemIkjgGpYHJIDWZTTZsBOCUgFMCIQ34+a4Ul3+yvs55w2TjkVIKQEwWKUrpYRiJ9nXR0XwJDrmZ4H0xouktufPVpU7YBOAYhh8P3ter2Sy3Ral2FLUQzjtFNZk8MDcrlcKPgu2dg71YRqV8pYL7EsHwqTGqeQ62EBCe7Uv0rX4BSTVwoDVz8G+uM40sFMrdtKsv7rqLHb4QApdAUcDI6KzNm0cRw/aUEJm41/KR+/W7VDARKyU2Q1pD+nT0dKBaItb7BAHcqaHAYQZaxBQTdNSHf7FFoF7aVeQWLkUFa8e0CUqdtD+729QID0oxCU7lPCXQOicKkOtTohCniUMsqkSffz1S0gUpfqer1+ftYTp71ApLUmPc9dd4AoXCqPM3ohJPRDCUqXu/BdARLg+B84356ZAgW1VzGF29UdJN0AIow3vr2+vv6518T7c3EJKKxJVwmWLgCRwNGzv4qrzfOVFMaU3QTvuwNyuVw+hhO4nNZ0tbJwnfXfP0pA6HJ1AcmugAhWFXepTkKc1OXa22PYDZDL5fIVOS26t4BOopfdDeMobvUugLy8vNB5KvZ0aHj5xi9o7k69bTokcbn2OuzYHBCHw0a5ztJK75A0BQSMOTwYP4v2g+OQbA63drmbAQJmq7rbKALn2IsVSkASvLeEpAkgYEDmmapCJTt6dQEkzVLA1QFxOI6utu3735MrXhUQ8GzVj9fX17ftp8Gf2LMEeoGkGiAOR8/q13/fBIF71bi1GiBAOtezVf3r6a49lEBSywupAggAB33BlV639E3AXVWw/4ej+yS1NhLNAUGCcoejf8XsqYcCSOiCDtNbMU0BQeIOh6Mn1TtOXxDdCp+fML0IwhQQzrWqZQaPM83e0xIJoJvNlvGIGSBAWs43Aku0w+vOEgD0jOJbsws8TADxuMO1t5UEwMyWWYbUBJCXlxe6aGHz+xIed7RSn+d4Tst4pBgQLu749d6Hu1bPobdNRwnGI8W6VwQI4Fp1eYwk+LHsC1vpjLf8sE5YdJoqXPLlXXou3WUcv7o732vc454V8lZqqfdSBAhnPUo7V0tDuH6vPdcy8OPG9fLycuXK7PT7+IXb+AXfXTd6wf2RokVaDQhn4loqlFRZHBCpxDbL3z59vde1r4AXU5TVUgPCrXKvr6/qts2mb6MhB6SKhOOHT5t/FhuYT/WBRpUSc75fr65VVAtAoA8a1NIicotPFfW2bbTpx1CRrJZ2k1oMCGDSijMHtnP12JoDUlvCv9snpRyG4UuLDxgBG4iqvRExIJxy9W49aOK4MXiQbgpQk9djwYBdvHiLAAEC87+naer+Q40OiCkAUGMtXFROP4NVE534FQHC7Zj3HJins+iAQDpdo5A6WEY7A8ytKO0LA8LRGT6WaXoWHxWKtBwgRA/SpULFy4sUFG/2d0kwYIetCAwIp1RHsR4eg0hVrkr5qpBwukonBdAj8RAggPUwO15cZToWjQICPKIF0X7qevOQac250KZdkT4BmVb4lW8IEE6hfp1TetsilYcIBynDjeeIWazS7GG4tC0OPZ5TezeOI/29CkQ1A3dgjqGMFgsIR2PNlQBRdk0ZQHiHsyClgOTkGOB5P47jB+RWfsmc1Oo35/WEjBZ7cQgCSPY7HkezHmeNQWop2lLZBdeDopxAKznaWCyHvFiFLO4sILljD8gDpANrUd4tSLmUEQVEn1ILbsCKsGnnLCBHP3O1NUEOCKq6fDngiAffiCCrhDS2sCLZz4pzi3wWEObQXBXTKBGAtqwDopXcej1k74F7Yq19NADgbMp3ExDOPNUaECdIi987IBZSvG+D0xfgiVUWXATenIuXA+R0wXmcJAcEUFdFkUJI4M07adeA+d6EcxOQMwbnDohUteTlAWXcbLRisP5pHMfPmdFswrkKCLcSHNm9IiFpJrHmptZy4jQvTNVSLiki3L4Z0153btYWIFn36kjnrtYmxAGRqr2svEa+4QnduVmrgJzZvXILIlN2TekSK1LLEnJe0dYBxgdAuIaO7l45IBqVl9VBMkdbLdbSL6RPa3CuAXJq98oBkSm7trTWzaoZ6wF9eoiBHgA5u3vlgGhVXlYP2KBbbbAmIECfHmKgO0Cewb1yQGSKri2tjUO4ox/a/lA9pE9LN2sJSDZffMSTu57FKlEpfV1EGTdar5LqDYD88evIPnc26+7lvztAOB/t6OndOCHcONcmrqbpXz7vyPsgcSxIUNwaENB7uAN0Ccjmpck1TZ9+ndLVdEB0cpPUKgCk2l5IsCKiXfUbIED8caj3znOT6YBIVF1fVmMJJRcqaHqGuH5pHCIBhH09UdPhPeo4IG2krgSkWgyiiUNSQE6//+ExSBswEjmLv3PSwpUHFsgbpDdAcrcmtuh0y6kDBPTQHQ/SZTOkjUFa6JpkPyQF5CkCdDCT4YDIeHgojfj6e2ULkb7FOGQGBAjQ4asaC+XapLpbkPpi5nRqqwe1zmKlz9MAwm0QOiCGH6fn1FMT3NY6Bcv1dev33IUfOwMCbxhGC3La12vXJsItiFbt8XrclwAygDS5pZNbhGIsNAPCKcxZdtA9i4UreElJbYBOz2yla5zO/7pBcs5kRUDofMrm/autOl0yKZK6gHA8SJcIdFG2wL1q9gEmQAfmHf0IyNNksBCLuVd2JbFwmv2DbjZyC9yrZmMAUr2zNRs5c9giL12wWKmqAquHWxCVZPmMaK7Zlp4KkmWjxAcB8nEcx697ZhWUc6Gu5oCoRZetyC22ucqtF2I01euAgLriO+nrgkq/KxIW2vhtEaqAfNRnjn1b7H+kI0BgpjknQLg9kGZ+IairxcXcgvz+ll8QJP1J/71JBEv7BOnv6VfZj+iU7MMEL+ZTAOXbMAzfA1w/an2YSQIItwfigPxe4Zod9+dy9BtJhNs8BeVfKn5U+vjvxQtNbKAEjpA0ySUlZit0vV5ncKZpMvtQLCdncvvIgnCANNm4MZstoKEDW5DostB3Lejv8f9/0rBzsSQgFk0R6gedsiDlVf1o5oLGHYD5p/DZ2WyhAyKY0loWhHF1SPFnEDhXg3OVBUOFilrIAwmUgc5EC/NFal24dPQMCEcwclFDkglbrnCzL1lCOSAgcRFuzBsujMjFyig+6+po0p2NAKGVm1wcWrmRADw7N5p5YCab/WJUWp8DhHbTWUCQyeJ8uegKRD8ydPKbhZDFdABHa7YAIcXYCGzToDbN4mi6pzpuURmQGYxpmr6oBrRSqWJ/4XfaUUCKjpkYmMml1SFxkuWhn9vv6H8sgAorO2XuSJGjeb57Tnh2dG9iP6jORysFybWDLErL+oYKN7t0SVCsji+2xsjtvZXKGE0aABZstiB7A1IiD87Mr6YmUQGmHeOSGSWDWNZVAqLNTrHxjeXYDBZUtjtofAQA8uPogLDC2nCXxKnr3gFRCaJxpRZw0JBaAsL6c8iGS+N5YB93RgvCDnrnAq3gkAACLHqsBXFAgmIBwjRTQY2LZfbwCg0ZxkdQ79BjK6iL9e+vdNZm5oWbLLcg0JyJCnEyFzW2Y+GgG3QQtjizJxmGISDN0ryS8VUvq3SxuCsrzfp9BkBaulRLwSN7d1SHS1BB+yDIw4B9EDPlsWjIAbGQ4nYbrV0qB8R4Ph0QY4H+vjqK0swfwl5R9uSv/dPvW0QtMGdB0LNYbEqUe1BtgUjbd0CkEstaiwhG7jvkdg8EWhIAYnJYEQEkG+gDY2paxAEpF3dyIqHJ6QJBj+HLr7nQIFqQ4hemWqZABYLaLOqAyKSYHLwkF4oyUk2zUpLeSl7dBQCxeaNw76BMIkAqe0ZA0ldfhfJI44X499vbhb0DsRKgQ1cHIdsTlC6mF6bej+NILtLqD7JtX/vwmXDC2eJnBATY9GLlcoYC6B4Ip/dhIZ0Byd5TCgKShaw3wTsgvc2IXX8EgGRv8wmAvGUBiVcw5obAQWY3fJuWHBAbOfbYCrJvR/1GwoL54jgqzKRp2fNYoQ3xbYB7CdgB2Uvy9Z+LpniRxFIKSC5NiwJymFSvA1JfUfd4gjCDlX0P6u7yao4mxGxxbewhsEzigd3bWdZFTLLVGNFVMH2eB+myy+e4ze27zx9wk4+suEhWwEqBSttBxuOAlEq5fX1kIY+9QvZA6B38+AEdi1Qv+9We9iJbf6ID0stM2PYDtbzIYh6zYRGQ4lTvkQJ1B8RWMTtpDYqVQwYLSvHSJSHQV26RVG8A5BCBugPSiUobdkMSoHMhBXUrWqMUkOJMFvJgQ5mom3JA1KLrtiK6QYgs5ClsN0A45UaUCvHtepAwMhYP0nuYKbwPaPyBhALp6ZEUkKcJ1B0QXPGOUFLoXiHxx20bIAWEy0JB5+yPkI93QI6g9ngfJe4VcrA2tUY3QADfDMoSIB3Ah16npANSR657tSrZ/+A2tJfW6A4QoziEs0R7yfH2XAdk9ykw64DEvQpGIHvEhAOkOA4BLJGZcLQNOSBayfVXT+hesa9lLNtbWhBu9YfiEM4S7S1mB2TvGbB7vtC9QgL0uy+q3QECrP5oHMKSaicieUsOiFxmPdaQulfS+IPG/AAIF2SjytVzNgsdQ6oULa2iJKcf+9izvGvBJXGvwP0P+t7i3UdC1wDhzmWhL8Wz5qyW4Lh2HRBOQsf4fW33atWCGLpZXDyz2yw4ILuJ3uzBUveKs7Bb7T1YEBrB2d0sB8RMT3drSGI9tO7VpgUBLmFAs1ldBusOyG56bfJgqfXgFnzq1BZwqxbE2M1q/n0IbhYcEE5Cff9eOn9a92rTggQ3i9s0hN7rRuhtPR1SAQd5dP19EE4JWsu44vMg7yV9PvB67UP2KtbftCCGblZ3wboDUlF9KzctTe0iC3Qurb4JSFg1v2a+DU7f0iby2O9oI52sLNe75h2QltK2fZZ0jwi9vWSrlxwgVnsiXVkRB8RWaVu1hlyDm/YFWZi5bFgWECRYD8r2gxMS0lmuDavfOyBWkmzbjsJ6ZO9IQLJhLCDca7TIQ4K71o0VcUDaKrbF0ypZDzbRxAKCWJHX19e3iBB6sSIOCDJbfZWxth7oTT0QIIAV2UyTLXxCsiJk9nb9yKMD0pfyc71RWA92gxrNhqGAkGLnNvygY/DB1WI7zwms9PcOSKkE29avYD1gfYUACYqdPZ2LEgmkj6tL3wGpLmKzByisBxvrSnRVAgj3YJhKYBPSTMBrDTkgVcVr2ngF63G7NRHpKAwIaEWgd0WQtpDOa8s4IFrJta0nWelR913aphQQNhYR7ItwbVWbDTLbwzD8lDxgHMcPrT5/LF01gUyjZKi9lNWcueLuhoa9nCgEESAgpfDA9na1etGElX6wG68rdXbNDFrLktvhXj4PeSVa4zmIAUFWK0lHetkbsZ5gb08vAakbFHSS+0YmvHCnPVcBAqz8IlPG3TahF7XXPKAExIqMHPWXWiS1ixUrciZNkp4LwO2+gXhAZTpdl6WKzG1ik4AkurgUqMqChFiE2xWn4/B01gXypwGrdDpl8AHdS0DpWnGBuSitawZIgIS72kfqanHtuU6dVwJi14rzYoL1YA8k5kSqtiCxUc7/k5o3ZNDn1ZGnHZkGDuTIkrhdUwuSuFp0Y/bmjzCrtdv+yNOq574DF3kZqM5ZWA9qo9iCoK6WIh7p7jaUffXonE+XLJ6o12IFhxkgARLu1g+RufPM1jmBSEelgQN0wUW6VjUGiY0jCq2IR7hM2fm16KQjVMKBxB1il60JIKBvCN+EsgAvG+OcVIdOOywlHNxp8llemrabASKIR6DrghyS8zGiVWAuWxrg+DxN0xdLqZkE6csOAYMRbSIm1sl32y1nv3FbNeFA3zGXDrkKIEg8MgyDQyKdreOWF7vWkowV6RJ6cYhUhFUAAeMRKiYeGAifVA5evp4EasNhHnekoqgGCBiPUDFxSi5A4vsk9ZTaqmXx3CZxJ7dtUCUoXw68KiAoJOjlc2nnCZJhGD6M40hvB/pPZxKQpvQXcwudydPGNBJRVQckQMKuBhpI0LYlAvGyxRJQu1SS+dSc/NWMrAkggoGLY5Ik3vEMl0YDbOuoXaowj7mvCdx6ql1MNUNtBogEEsm5rcRnJZeLLNVHjSC8TpEEyGrQjTbqPQhgayB2sAhC6ShbA4Ke1BWngKMl8bhEqgJl5S1W817hIMk0BSRxh5AMlAoSd7nKFF5QuyjWEOoCFW9qOaIcmgMiFIzadHuWS6DqwqIlGarUJWbue057tQscu1iQRcwApWlLJsT3TITanykeLtz7B71nYKsp4VVPu8GxKyCKmKHI5fLYRA+KFRjUA0G8QTvk8FW2+tHla+7iYi27BL4EQ9XULpcCyFoyP0y7lmBIjwiVeA2WAu4CkKC87GZiHHip8Dw+yauQJRjSuaXyrTYBEZC6ASQIEjpiEAamdrk0cRAizIOXKbLOa2PXxH8tjo9I5qkrQKIbJPhMm8mkPrNFIT9/GIbv0zTRn2Y/Arc5PrM4bWzW+aSh7gBRxgqWoNB7z80+dVBjUoE2TeS1YTVIfrTPJbltftdMVU5eXQKSuEBwXJK4XaLXebeEk1gVOroimWxAP3cpMkMxDENxmnbLndIc9SmNJ2tLsmtAFC7XLK+gCF9K8/WJNYtH6+nP97UnxbD9apYi7aPCnaLqXbpUS9l3D4jS5YoTYL5iBstCkLzr8GAkKd03Ur6Sg4MooAEMjYXt1qU6JCAFLlcEhZTGxKIsBbgApqWFucEQgmwaY/Wf0oRGTylcRFiHsCALc46eCH4Yf+KDV1WmoEQEC/1HlibGMGksk4tr4icjCAL6e/oJCco4Ve1/JsaAjgZtKF5xWh5RaOsyhwNk4XJpzHu0KmRRTFOb2skJQA0WMZO2D1v1Si1G6ekH6/FI2zskIInLVfpeenRTKLPTfFWWTlar8lYZvN4zVIg8Dw1ICorg6PSWXGIadBcXBpmsmmUSKCgBUZqp+xZiDejrYjXHVdr2KQBJQKGjKp8M9i2eAhZjKKLrarIPVarYVvVPBcgiPrG6Dii6Yd9D+vSwrliScXsTUtRWG6BN9luslF7SzukAWYlPtIF8zhUjSLoHJloIGkil+8NOC0ac/NMCsgCl5vmq2c8OG3T01xmcYG2q++AxAxbihjfkXoa0cmkckVtoTw/G0wCSznJ41bPlQcTlfsbsp4c+/Uz6tgZSdH9I6dOf+d8bQLAGCIHRTXpc4ippy57egqwJJqy6focWqDXWL1CBj+2i2FMC0tD96mKSlZ14GjcqJ5+nBmThfs3nqJ7gXRCPLQQrhgOyIqwK+wOCKWle1C1FRuQOCKOPO57WrUVK3ASls1/qu3Rrda63dh0Q4YwcEJinOBUgnEa4uAMCi2q9YOZoe819iNUUbDg5G3f6n/JMWeF0PlR3QKwlmrS3hCf+Knk/hP5p7V2RdF/k9vfwbgjVif/mEFScP2r6/8DBmCAGfVBWAAAAAElFTkSuQmCC;" vertex="1" parent="6o1rjcuHU60eiY54TzUB-43">
          <mxGeometry x="10" y="200" width="50" height="50" as="geometry" />
        </mxCell>
        <mxCell id="6o1rjcuHU60eiY54TzUB-78" value="" style="shape=image;verticalLabelPosition=bottom;labelBackgroundColor=default;verticalAlign=top;aspect=fixed;imageAspect=0;image=data:image/png,iVBORw0KGgoAAAANSUhEUgAAAMgAAADICAYAAACtWK6eAAAAAXNSR0IArs4c6QAAErNJREFUeF7tXQ/SJykN/fYk6knUk6yeRD2Jzkl0T6KeROdNfdliGEhCgAaa96vamt2dBsJLHvkDdP/0wR8RIAJVBH4iNkSACNQRIEFoHURAQYAEoXkQARKENkAEYgjQg8RwY6tLECBBLlE0pxlDgASJ4cZWlyBAglyiaE4zhgAJEsONrS5BgAS5RNGcZgwBEiSGG1tdggAJcomiOc0YAiRIDDe2ugQBEuQSRXOaMQRIkBhubHUJAiTIJYrmNGMIkCAx3NjqEgRIkEsUzWnGECBBYrix1SUIkCCXKJrTjCFAgsRwY6tLECBBLlE0pxlDgASJ4cZWlyBAglyiaE4zhgAJEsONrS5BgAS5RNGcZgwBEiSGG1tdggAJcomiOc0YAiRIDDe2ugQBEuQSRXOaMQRIkBhubHUJAiTIJYrmNGMIkCAx3E5r9YePj4/ffgr9n4+Pj3+dNoFV8pIgq5B/ZlyQ4p8JOWRUkAT/fPn6d/94RpQzRyFBztSbV+p/F8iRtwVRQJK/eTu96TkS5L3a/vtXL/GnJKwCCeBR5P+RKA7dkyAOkA59RAgCD/G7ZA4gCXKSnz//zKeH/OSPh855uNgkyHBIt+kQuQeIoBk8/v4vBaKAVH9mMv/xQYJsY8/DBRGC5B6kNBDCLhBFKl3pM2gvP5Dtl88E/4pKGAky3C636RDeASTB76+OJBzkAElqOUotZwFhXksWEmQbe54iSOpFPCETSILcREhS8iglQV8bkpEgU+xym05h4Cj14ucJtUqCC0ngkfCrJfevLBeTINvY8jRBEDYhxMIPpV54kt6feBrpN+3vVd6EBOk1lf3bw5hR8hUP4MlHvLPSiDJyHK88w58jQYZDumWH6ZETrPDY50irU71C14hyfNhFgvSaxjntR+Qj1mxzbyXPH+tNSBBL5e/6+zQfQS6iHVQUr4A/cU7L63Fq3mRU/vOoRkiQR+FePli6wltVrfxZT5k4nWDpJPGM8G4qqCTIVHi37DzdQEQuom3ypUYeOaNV8iZHkYQE2dKGpwv1v88RPEaPTUNUwXpCpDS0w9DHJO8kyHRb3HKAlnNa4kV674yUSNIatj0OJgnyOORbDJiGWVayDoHlVHCv8CWSjC4598r4XXsSZCicx3SWlnw9YdbIiR1FEhJkpOrP6iu9cWgl66NndgxJSJDRqj+nv9bj8KNnViJJevNx9Hih/kiQEGyvaJTuczwdZgHA0q57T6VsilJIkCmwHtOplHAh8NNhlpAkfy3RCjmqCiNBjrHlKYKmyfqq1TuVQfZItgm1SJApdndUp623DmdMLvVk6H8VWX+YGwkyQ91n9bmy5JsiJUSV/+fZn5mONAkyHeIjBkgrSqtygFKotXwTkQQ5wn6nC5lfqFp1BCQPtVZU174DmwSZbnvHDJAap3UUftakSqXfVR7t2xxJkFmqPrPflCSrcoB0A3N5wk6CnGnIs6RO84BVBMHc0oR96VtSSJBZpnZmv6kHwV6E95rt6Nlu40VIkNGqPbu/dOVebRu5F1myebgahLPN6X3Sy03DHTbq8orWkmSdBHmfkUdntPpcVi73FkdQSJCoOb2vXUqQXewivbMCxB/3IrsA8T5zO29GYow7hFeCXu5FHt84JEHOM+RZEssHP3d7C+JSL0KCzDK38/qVBH3l/kcJtaVehAQ5z5BnSJzuO6zc/6jNLT/p+1guQoLMMLfz+tydIMs2DkmQ84x5hsQtBJEvTj29y77k+AkJMsPczuuzhSAwVDkf9eRMl3gREuRJFe87lpcgUlFacRw+Pwr/iAwkyL5G+6Rknje+5yv4Y4lyAsTjd9dJkCfNcN+xPMfc8/2IR1bwDLL8myPTZSBB9jXapyWzNgplnySV6/VehAR52gz3HU+qRKXjHHloI7N4/OhH4Y2M8CL4RJz2Obkw6iRIGLrXNZQ3m5TClvw9uiCGfFZ6hRfJ8yHIDJm+GF/MalYaCdIM2WsbaIl6vpON3XaEZPit8CIYNyetKGbo16tIkNfae2hitTBL8hN0Kqd9V34+AXLUvqY7lCgkSMiOXtuodmkqTdCFIE98d90DNOSA9/v91w1MyJ//ujwKCeJRwT3P1Iw+JUh62rflu+tPoKiRJXSMnwR5Qm1njZG/QA4eA8YlvzQpb/nu+tMoDPkENQnytNr2H6/0dsNU6txm0s270Co9GZLSERX3F3tJkMnaObT7Gklql6kkNFv6kjcD67zq5SIzCXKoBT8gtsTzP3+e3rX2GCQ0m378o2PuJW+ivkGeBOlAm01/QEBW6Z1e/JALmecmapWLBKGVj0ZAcpJVn1DwzicnSjHkIkG8cPK5FgQklAFJnr552CInnk1zkx9IQoK0wsnnvQgISRDj7/aTa8OQC/8OkmCz8YeDjyTIbqp7lzxifPAkq34SSoEAcsBSk+W7ShwJskpt94y74iUP8Aj4pRucFuKSrOM5HJ//9iNBLNj496MQQBl4yp2NTMDa3RV5DESQ4/H4f79oR+RJkFHqZz+7IJC/iRFygZgghUqG0gRIkF3USjlGIlC64BUqFpAgI9XCvnZBIH+5g+Qjv+YWXkFJEC9SfO40BEokQZilHi3JJ0mCnKZ2ytuCQI0kPM3bgiKffTUCtZPJrpuG9CCvtg1O7hMB7f66euydBKEN3YRAzZtU38xCgtxkHpyrIIDNRNxzSY+eFO+xkCA0mpsRyInyA0lIkJvNg3MHAnJzEpuL+PfvLnuRIHsYCRQj/4hEcmZoxX2KVJ7fJBD9N7nfgbj9Tb80kf81cc8JAhaVXr6VAzHrtphnfHcNe3PtiUKAd3o/IRdbCAKDlPsKM6bmlScnsNxV7yWypnvZ4Jsx77xP5CV4a+Q3O8sJkn8DoiaQ640QgdmUXrGfd7PqXbCB6RSbyB0Jz0JU6kDq9zDMXqNE/2IQGkmtubv2FIxONNt7WudS7fqSEyR9B6s2nxkCW8eURZ4ZY1sGMOrvay9cjvQvR7ZxvihClFrJMyJL6lWiHn4ngvyam0QJgg5Gv/be6712fq2MZlze+bUaaMSb558PaB3Tej4i024E+TbHnCCeEEfAiYCgAdsy9mnFhZGeI8ewFYvZ5Ijax/YEKV00eSrM8oZXIg++TxEJK6yVb8bfew1SPgAjoZPkBFJRwtvLpSQpcra+f8ori+QUuGCEH/5b5Mg32DTMam9iLLXZniBe8NJ4E4Y64tcafowO70bModZH/vGZ/LnW13WmLyFofa2ORxbPcXDtbFM6v5ZweHuCtK7iAKJlhRgVXo0cdyYx0LcH06e8oRXmtXojzM/qE894+30lQUZUlDxGlBvy6PxnFlEsz/iUJ7Sigx49WiTxesjtCaJ9861WI29xoTUjtIyo1O4Uglhl89YEO0pkC+MeOTzlYo++tidITcD0i6YlBfWGWaXqFdxynpCmY/eseFEji7TTCOINPSLj5m20CuEIOawowLOQHksQsB/GWtv57THWGrAgnVYt6RlzhMF5+9AM86k5WMY7IgfyeBErnNyeILXVDgRBuQ8VkNLPszq0hldQmnU2p1ZBq8kJGWCUzW+2+BQeCqyFmjj2UXopmkaQHty8BMVzT3kxKxexwqxjCSIHE+W72CPDrFp4hTEtwGtxs1bK7DFKzdhrYaZmnN7ktYUMpWcjckfG7C0EbE+QGpCifM3wIuGCFl5hNbYIUgsNLEVZrr5kHFafNVmsfYcIbi3G+0R4JfJYG83W4rQ1QbTJCUE0I7EmX1JqDRAxNku5NUO3FGW5+pKsliw1b2aRHGNF5PGSZGb1qiSDtSBo+c7WBNGMXwzRMrzWlbnksdIV1Vq1tfFGh1ma8rQqkIWZGNkskmgh3gzvZRFS09nWBNFWyJT1o8IsK7yC4VgE0crL1orfSmZNeVaZ21pVhSQzcpLZ5d3ci1geU8PqFQTRDK8lzLLCKwBvrb7aqtvTthQ6aCuxVSa1ZEnHG3kZyhp3hteyFjVtzK0JojE/NQALdO/KXFvZ0ljeGstS8ChvBwPWVmLPLrTl0XJSjrih14ufN89Jn3stQTT25gbQa3g1YynF8j0hwihvp/XTEsdb4Udtjyl6Q88yVis0JEGSC1MtBOk1PE94JcrpSTKtFdTr7bT5th7TsGSqGWUkP7G81gqCaHhtHWLVDLGUV1hKtgzPE16JofR6q972kKMnQS8ZvPcuRamteBPPZbEVBLFs4wqCQHFRw2sJr6xxPEUBLazxtIcMPQm6FqZ4zi/1hF0kSCRIzNpIflEzglqMHTW82mpc8zra6u0xcGtFs7zdiATdUhMMWd7qZz2bV7y0238WQawiR4ss8qyF97FVrFrYUyOIBUTN8FrCK4BuJbaeCpLm7awcQpun1bbFwKJhl7xQrRRyrSCIVRh4HUE0I2gNs1rDKw9BrD0Iqw/LC2lGNiPJjRClRpIeY20hd0uZ99iNwtrKrhGkNcyqhUs9O+IegkS9nZWge8aOGlorUUqengSJop+0Q4iiGZDmEi0F5GFWa3gFMa0wwZNDWMm+NsdabjYyvNLUaIWYadscC0s/LXs4XlOz9HWkB4kSxDK8VAGR8Ar9W0r2EqTV24lBWFcAvIbT85zlAaXv3OCtdlZ4GZHZIvSRp3k1I7QqHV7Di4RXHoJ484AI0bwHOCOG1NrGMnb0VzL4p280Wqd5taLKthuFPQTxGl4kvBpJEMvblRYCrQjhqZ61ksB63lqd0T73qNZJYq8HtmSTv++53rstQXoqNdbKhlgd99kx+fznieOt/i0Pl46pGVgpHo8ULryGFHnOwqJEEGtFb8HPI3PP9d5XEsRameU9s6U3onjCI8soWhTcciOyZ9HwGFL0Gcsj5JhaXmdkom4l6Ja3ei1BrDCrZgyeMqlFEI8XkvGtvlIFthzejBp7pJ1FkNZK1shEvXVfLJ//tgTRVpkRq3zJELyGbRl16wqoKSH1RruFV54YH8+UFh2LVB4dW2S29OQZ47UEscKsErgewKTdyJevad5OyKaFClaYYBlS799b31ApFQ+sMGuEF7FyHU+0sC1BNMG8BtEaZnkAm0EQbaUTQ6nhMcKQeghiGXrNK1urO2RqyeXyOVi690YLryaIRwkCrBewGQSxvB2Ii5AE88l/LV4vbQsD6v1ksmWEGE+TzwqzoiTx6N1bEn81QSzDSw2m1dCstxO2fsTH2vfBalr6tXi9tD3CIrljjpJ3K1k85LC8m8eQW+/Be+TyRiDAa1uCaKtLywStMp8YTauhjSaIZiy1N9m3ej2Za0npMET5Mm2NLHJYEZiWvFlOYI+erBBN+rTerAKZ8Dm4Uuk+lWtkAUU+TxcJUdHWcwOz2Dfcn0aQFmP2rFKtoEHo0QRp8XYCmscASwBbSTXaQHmpArEyt/y85I3cYBS58GeLXBE9W4l+Cybps1HdfesDBBl5pdSKdVvDK48xe2PcFDTvaioG3BrGoZ3Xo0YVj3athgiS1HKsHjl6PIfmbUfItBVBLMNr8UgCjkW6CEE83k7Gj5Ba2kZWba9RRCtPM2WC7C0vlkjneoUHsQwvYswrCdK6QteMG96k5fPJGkkirwDK+2vNcbyklefkiJHkWp722xJEi5NHrvjeWDkH0wIuIqMndMMzXe65YBUwTO3DQBYxYHClD/V4DLD0jBAF+UVLjuEdr4Uolp69Y+bPdekQK7oGTGtJEsIB9FLlJU9GvROu9SftIzJ6CDLKe9TmiXkBe1SEBC/5U7DCn5HSsBfb9DlNHjyXVoMgE2SDV6yVxdO+hSj4EpdWufNU7FrnFrWPb+NEQp5WAXd93qowda08u056glytOU1PTjdBfL3LWwlibXJFw8HHFbjJgC05zVE2d5SwA43BSvyjec1AEY/sSohSC7uO8h63hlhWKZqhVT83S2HX7JyuX+pCD7d5EGvzLrq3MEU5L+g0fa3qkQvPLQTxJJJHrnAHkEiqkF3VpFXzfBtBUEtHAi5niKwScVoqxgrHHxH4DoG3EcRKvkvqp+cgKaoI3E4Q5hwkh4rArQQZcZ6JpnUBAm8jiHaZR/IS1OKPTBgvsMftpvg2ggjA+dkmEmI70ztDoLcS5Az0KeX2CJAg26uIAq5EgARZiT7H3h4BEmR7FVHAlQiQICvR59jbI0CCbK8iCrgSARJkJfoce3sESJDtVUQBVyJAgqxEn2NvjwAJsr2KKOBKBEiQlehz7O0RIEG2VxEFXIkACbISfY69PQIkyPYqooArESBBVqLPsbdHgATZXkUUcCUCJMhK9Dn29giQINuriAKuRIAEWYk+x94eARJkexVRwJUIkCAr0efY2yNAgmyvIgq4EgESZCX6HHt7BEiQ7VVEAVciQIKsRJ9jb48ACbK9iijgSgRIkJXoc+ztESBBtlcRBVyJAAmyEn2OvT0CJMj2KqKAKxH4P/xe4cWM1+FRAAAAAElFTkSuQmCC;" vertex="1" parent="6o1rjcuHU60eiY54TzUB-43">
          <mxGeometry x="22" y="429" width="50" height="50" as="geometry" />
        </mxCell>
        <mxCell id="6o1rjcuHU60eiY54TzUB-79" value="" style="shape=image;verticalLabelPosition=bottom;labelBackgroundColor=default;verticalAlign=top;aspect=fixed;imageAspect=0;image=data:image/png,iVBORw0KGgoAAAANSUhEUgAAAMgAAADICAYAAACtWK6eAAAAAXNSR0IArs4c6QAAEDRJREFUeF7tnYGV1DgMhuNKgEpgO8hUAFQCW8lCBZMOWCq5vUpyaHCW3JCZSJbtSPY/7/Hg3tlJ/MufJdmOEwb8oAAUuKlAgDZ1FRjH8e0wDMsfuvmb1RP8u/r3C/17mqbnuk+Iu60VACCF+kME4QMBEEKgv+lP6u8CyzzPBMvPYRheAE6qlLJ6AESm183SEYiPVCCE8DXTZe9d5mUBZpqmbxXu1+UtAIjC7AsUGTyE4ikuVcnDXICZpulRezHU/6MAAEnoDSswangK6RMunuU7wjCpdH+XByACDSMYX0IInwTVjixKsDwiBEs3AQBhaOcQjOtWESif4VEYxr4qAkDuaGY8lBJbe55nSubJo1xmxfDbVwCA3NBoHMdPIYSnfQndlSBv8g3JPM9uAORKJ/IaEQzNugVP/T+llhGdFhBr/QiUB3iT+3IDkJU+4zh+CCH8KNBDL6N2vC6tll+mZbc6ZwzrlkdYVtzfhxDo37mhhTfZMTYAiQKN40izU7mmbV+ByBnKrLapEDDa1fnXrjHP89ecz1lggDnskgBkGIbT6UReQzs6Vx+NV5MINO2sDc8Qcm1g2DUgmfKN6mBc23HZ9xVCoK0uGtABCaZ5fyuQAQ6Ti3AZ1mwAyQqSLj2IEg4Xi26xjRQ6poRegCRC0h0gGjji+sHnwzJG4Y2VC52AhHZmCzV3XzwxIXfhNW4ZR+FNuoekK0BS4PDmNe5BMgzDx4Sp7Jfz+fzO/ciY2IBuAElZ52hxfSBRB9qa4ia0TGRhs1oXgKSskMfdr02+qZeyz6zFwYIDUvOAxPj7H44YS5mW4VjamACJ6zxMYv912eYBkeYdcQNfFyeJJHjW7vKRpgGRxts9wbHyJLR7me1hW5m04HqUZgGRhla9xthxV4Hk3ZeuQq1mARGGVs/n8/mBO6q0WE7obbsJtZoERBhbd2Pse2BLdxj0MJFBejUJiMR79Jh37Ky4c/ORLgaW5gCRTF/2nHfcgYSdj/TgRZoDROA9us87bkEi0LB5L9IUIJLcA6HV7YxEMgPYuo5NASIY+eA9dqbixnF8Yp4g2bSWrQEyc6ZgWx/1OBrslYEX+a1QM4BgxNvr8vL/z9W05dX1ZgA5nU40Pbn7eim8Bx8UgRdpNllvCZDd8KrlkY7f7WUlBV6ETmlsbpNnE4Bw1z56mLeXdf/90tyZwVYHnyYAEYRX73AW7T4U6xK9h1mtAILwStbvRaW50+ct5nfuAUF4JerrSYUFYRZ9pKep15RbAIS1oDXPM8KrJDxeT6HkbGJsbtHQPSBM93853ymxf6Da709b08eE9s79bW66twVAWOsf6OV1FDifz+771Fop9405nU67CXqdroG7kAKtJequAeEmj+i69RQAIPW03r0TdwZr90IokE2BXC+h0eA3DMP71fYh+mzdz9qr9cU9SGwo7ZG6+V2+VOsIDxpIvQ3qCRTQAsJ4N/457oio8inrYoDE0f3LxgZCaiB9q1u9b4e7T0hgXxTVK5A81Ss5hb7WtH0RQDhTrzTSDMPwXbP1A4Doe3OBKyQBItjSsjxylU8zZAeEA8fSQi0k3D1YBToBLnlbAfFaSOpkizac4xgxKyApDdVAAkA4Jq5fRrIWktJnVi1K8lYSRbICIvEe64ekrdK/FmspLxElXvETY5L2omwFBbh2VMJxaYkExpSm5wZEs2hXdXYiRSzUyadADjhcAZKQZG2pDUjy9UGzV8oFBy0dlP48nCUPshgUkJjt2voHywgHPYy7HCTXxkFAou+L5q6QGY4q+76yepDMK9tV5rnN9aJGHyg3HDW8B5kiKyB0wcxTr4CkAWAK7JkrHlotsmcHRLJdgGl7QMIUymIxz3AU8SB00ehO6Q203YPcmEYFJEyhLBXzDkcxQCIk9HHIH4DEUpet9yyZ89EqM1Zb6mQPsdY3QbhVr0NaulOBTaTVco5rHYsCUtCTNHW0jKXOrX2WEAK96LR3uAP7Nkef2FgckEKQsAVGQb8KHA1H0Rzk2iwFwi2/lseT7ypgAY6qgMCT7PYJFIgKWDpkvEqIVThxR8dqTIHSW9glclUHBJ5EYp4+y3YPyGL2zNtS+uxNDbYagKyMCkga7OHKJgGQKwFTX9VV2gHVjSoAQK4MU2DPjlHT47E4CgAQHSDqA+c4RkKZIgqwVtgBSDogxd9BLtItcNFlhzdtXt39ARAAsttJWisgeaMQgACQ1vr/bnsAyK5EtwsIknSEWAqdj6wKQBTqAxCFeE6qAhCFoQCIQjwnVQGIwlAARCGek6oARGEoAKIQz0lVAKIwFABRiOekKgBRGAqAKMRzUhWAKAwFQBTiOakKQBSGAiAK8ZxUBSAKQwEQhXhOqgIQhaEAiEI8J1UBiMJQAEQhnpOqAERhKACiEM9JVQCiMBQAUYjnpCoAURgKgCjEc1IVgCgMBUAU4jmpCkAUhgIgCvGcVAUgCkMBEIV4TqoCEIWhAIhCPCdVAYjCUABEIZ6TqgBEYSgAohDPSVUAojAUAFGI56QqAFEYCoAoxHNSFYAoDAVAFOI5qQpAFIYCIArxnFQFIApDARCFeE6qAhCFoQCIQjwnVQGIwlAARCGek6oARGEoAKIQz0lVAKIwFABRiOekKgBRGAqAKMRzUhWAKAwFQBTiOakKQBSGAiAK8ZxUBSAKQwEQhXhOqgIQhaEAiEI8J1UBiMJQAEQhnpOqXQMyjuNbpZ0+hhC+Mq6BbxQyRLJYRALIPM8PG22Q9rGXYRhepmmiv5N/IaUmjfjDMLwPIdCH4aUPnnLLpQ4A0ah3YF0JIJkf82We58dpmr6lXFcECHmKEMLTMAwExhE/AHKE6hnueSAgy9M/z/P8WepRRICcTqd/KnuMa9M0DcgSqkqNmKH/Fr+EAUCGeZ6/TtP0KGksG5BxHL8w8wTJ/aVlmwMk6koh6zpUpdGOwoJnqUBWy1sAhLSRQsICJIZW5D2O/jUDCCdclRrzaOPcu78VQH6lB8/n83lrEmDz8bmAfAgh/DBggGYAOZ1OpOduLtcKJIYAIS/yjhvGcgGxEF4Rn00AIvTIrbTZyiBLgDxww1cAcoBblOZzkhHvgOawbmnJg5zPZ1a/p4axChpqXCuj6VMIgRJz1k8y4rEueEAhr32IBQjpaWCKt6UQC4AcAGmxWSy6sDQsKNR+eJBCwpa+rBEPIu4/bA9ixIuIG1ja8CnXH8cRHiRFOGWdlFBVBEj0JGTc2nuwFmkAiLKTHFX9YA+StM2EnaRfi0qNLbBZkbPpEYAc1cOV9xUCwt5BMM/zvd26P2lhkLvmsdVEsQdR6rRZvbf3QRBi3e9FkmnYEv1xfU0AUlrhjesDEAAi6nbwIPflSkkuRQaoUFgSYsGDXBkEgACQtQIABIBgmvfOmABAAAgAASD8wBYhFkIshFh3+gAAASAABIC8KoBpXkzz8uOr3xshP8XTUvbqYSV9TyGj/x/TvArDABCEWAixEGIhxGKea4Bp3r+nednvK1sSL9VpIgdBDiLqO5L4tJH3s3tcB+Ee/GEqz7SyWZGONGWduwVARGOPmcKCN1IByLXVJMfgNLJxr0cPwm2z6GC30iOACQ9CjTydTjOnsfEA4qSTujnXr1GmxxxEcFDet2maPtewA+celgBhHYzdwkmDAOR215znGYBsycM9VsiagJxRaCOk5IYbl6othJWCCEF8AnuKDbh1LHkQ7lm1pkYYrtDrcp16EG4IDUC2OpWg05hK4gDIvgKeJ2HMeBDBdhPR6dz75qtfQjAYNBFiCaZ4B2sLwZYAYa+me5/J6g0Q7gyWxdP7zQASp3q5M1mu85CeABGGV6byD+qT1gBhJepxZof9EZT6QdT9O3YGCPdVBvHn0WrY1RQgko7jOcyStNP7NK/n/MOcBxFuWnQbZvUECHf9w2L+YQ4QSR7iOczqBRBJ/iH9uGaN8MokIJLO43Vnr6SNnkMsSXhlNWQ2lYNQZxCGWeZmPTgjWw+ACL2HqS3uaxuaA6SHMKsTQLgvSJmcvVogMQmIsAO523oibJ+7zYpC72F6Z4RVQNir6h6T9Q4AYXsPq7NXpj2INMyyOgNyKx9pGZAE72E6jzTpQaTJevQin6dpcvGmYeOASN51MZucm/cgCV7kJb5YdO+bdZxJpuJlWgWkNe9hch1k3TslU77Ri5h210vbWgVEsGuXpDDvPcwDkuBFTM+ItAyIZFHQ02BmNgdZdSb2btBYx3yo1ZoHkXp6L97DhQdJEP/ivi3nIy0BkmIfT4dQmPYgKeIvnsfy8UCtACJNyqNtXC3smgVEA4d1SFoBRJiUX8zibYOpSUBywLGCxNz6SAuApMBhPfTdmt83B0hOOFaQPEzT9Fx8gYN5A++ASJ//ShbT+eG1CU0BIjn6h9kXX4tZet9A2sEsJbWJnuPaXG4gMQNISTjWOckwDN+naTp0td0jIDEhf/q17+2DdHC6Ud4FJCYAqQHHykjP0ZscBok3QEqEvV7WrA4HRLoC28Lo5QmQgnAspjTtSQ4FRNpRMsFxeF4ibfdROYj0ORX2MQvJYYBUFH/PbtVDLmnbawMSQ96PGfONPRuY3f1wCCDSDsJQd8kn3jLKbhah7478OmnysUYCL21/LUBiOPWlMhj/s4e1hcTqgGSaJlyHSZcD5KJxaZYlGZK40kuf/3ouCYo1QArMUKWOU+ZW26sCUgqOxRq5IIkrvo+lQLEEiPRZVD1fUNmKJ6kGSAE4NreQxNGQDsFWeZJoS8pPaAX+J0GTy6tIO2XuEItyjGEY3ocQ6O8cv0seF0LIpfviSQ7fAVEFkFpwrDwJfXc956LWcmnqCORZVLAcAUipxHu9azrz4LRAcuheuuKA5F7nkGwZifemUTKHN7keaQmW7wSLFJjSgFBHjYn2m+glSrT/5nld3A+ycl2XxObca3LLFQUk8X2Bm8+eIlTGvISj6QWWmOwv//73umIIQTSFSqP0MAx/XWcYhjcEfwiBAFj+cJ5TW2Z3arwAJId8D6Y0IJIDxO4aTROHW5ul0fbOI+tLBqnMkByymFgUkFy5hwaOdWeq7E2O7Mcl7n3Jv6SvDUjDyXsPLoEzlwDmAckFxxUodLgZ7UotEpvnMo6R69DITYly8vs0uSChxVxa86qpi2lASsCxmukiQD4ClNvdLeeInQmS6u+zFwVEM4NVEo7rsAug/B+SnGBseO7ktZfmPEjqvHgtOK6MR+EWTSr0Gnpdpq1Ln2+sHDSrn5xZ1INQB5QKcgQc10HGatNezanTmqH1673iJk0CIznHkD64tE8s1z9i+0lxQCIknBO/1cmg1FCc8i3CcgQUG4OQdAmgev5Bz1wFkAgJHSFKW6n/mjk6IrbkwLHlWeIepiUM8zALRqETLVrSfrKiu5Slmgo8yWEHXVcD5Gr26H38b1odNmW0BCMvhxhQmy7AxJXt5VIlIVqv2i/3IxDo50LXuEdsc+Bc2nE+nx+kdslVvjoguR4c12lLgehNXk9MiV6vam60pSgAaaufoTWZFQAgmQXF5dpSAIC0ZU+0JrMCACSzoLhcWwr8B3uMTX1C6kPyAAAAAElFTkSuQmCC;" vertex="1" parent="6o1rjcuHU60eiY54TzUB-43">
          <mxGeometry x="183" y="110" width="40" height="40" as="geometry" />
        </mxCell>
        <mxCell id="6o1rjcuHU60eiY54TzUB-44" value="" style="group" vertex="1" connectable="0" parent="1">
          <mxGeometry x="440" y="150" width="250" height="500" as="geometry" />
        </mxCell>
        <mxCell id="6o1rjcuHU60eiY54TzUB-3" value="" style="rounded=0;whiteSpace=wrap;html=1;fillColor=#d5e8d4;strokeColor=#82b366;dashed=1;dashPattern=8 8;" vertex="1" parent="6o1rjcuHU60eiY54TzUB-44">
          <mxGeometry width="250" height="500" as="geometry" />
        </mxCell>
        <mxCell id="6o1rjcuHU60eiY54TzUB-20" value="" style="edgeStyle=orthogonalEdgeStyle;rounded=0;orthogonalLoop=1;jettySize=auto;html=1;fontFamily=Helvetica;fontSize=12;fontColor=#333333;" edge="1" parent="6o1rjcuHU60eiY54TzUB-44" source="6o1rjcuHU60eiY54TzUB-15" target="6o1rjcuHU60eiY54TzUB-19">
          <mxGeometry relative="1" as="geometry" />
        </mxCell>
        <mxCell id="6o1rjcuHU60eiY54TzUB-15" value="&lt;font style=&quot;font-size: 13px;&quot;&gt;配置Sqoop&lt;/font&gt;" style="rounded=1;whiteSpace=wrap;html=1;fillColor=#f5f5f5;fontColor=#333333;strokeColor=#666666;strokeWidth=2;" vertex="1" parent="6o1rjcuHU60eiY54TzUB-44">
          <mxGeometry x="50" y="400" width="150" height="60" as="geometry" />
        </mxCell>
        <mxCell id="6o1rjcuHU60eiY54TzUB-22" value="" style="edgeStyle=orthogonalEdgeStyle;rounded=0;orthogonalLoop=1;jettySize=auto;html=1;fontFamily=Helvetica;fontSize=15;fontColor=#333333;strokeWidth=1;flowAnimation=0;shadow=1;" edge="1" parent="6o1rjcuHU60eiY54TzUB-44" source="6o1rjcuHU60eiY54TzUB-19" target="6o1rjcuHU60eiY54TzUB-21">
          <mxGeometry relative="1" as="geometry" />
        </mxCell>
        <mxCell id="6o1rjcuHU60eiY54TzUB-19" value="&lt;span style=&quot;font-size: 13px;&quot;&gt;编写Bash脚本&lt;/span&gt;&lt;div&gt;&lt;span style=&quot;font-size: 13px;&quot;&gt;对应Table的Schema&lt;/span&gt;&lt;/div&gt;" style="rounded=1;whiteSpace=wrap;html=1;fillColor=#f8cecc;strokeColor=#b85450;strokeWidth=2;" vertex="1" parent="6o1rjcuHU60eiY54TzUB-44">
          <mxGeometry x="32.5" y="280" width="185" height="60" as="geometry" />
        </mxCell>
        <mxCell id="6o1rjcuHU60eiY54TzUB-24" value="" style="edgeStyle=orthogonalEdgeStyle;rounded=0;orthogonalLoop=1;jettySize=auto;html=1;fontFamily=Helvetica;fontSize=12;fontColor=#333333;" edge="1" parent="6o1rjcuHU60eiY54TzUB-44" source="6o1rjcuHU60eiY54TzUB-21" target="6o1rjcuHU60eiY54TzUB-23">
          <mxGeometry relative="1" as="geometry" />
        </mxCell>
        <mxCell id="6o1rjcuHU60eiY54TzUB-21" value="&lt;span style=&quot;font-size: 13px;&quot;&gt;导入Hadoop File System&lt;/span&gt;" style="rounded=1;whiteSpace=wrap;html=1;fillColor=#f5f5f5;fontColor=#333333;strokeColor=#666666;strokeWidth=2;" vertex="1" parent="6o1rjcuHU60eiY54TzUB-44">
          <mxGeometry x="32.5" y="160" width="185" height="60" as="geometry" />
        </mxCell>
        <mxCell id="6o1rjcuHU60eiY54TzUB-23" value="&lt;span style=&quot;font-size: 13px;&quot;&gt;设置为自动化流程&lt;/span&gt;" style="rounded=1;whiteSpace=wrap;html=1;fillColor=#f5f5f5;fontColor=#333333;strokeColor=#666666;strokeWidth=2;" vertex="1" parent="6o1rjcuHU60eiY54TzUB-44">
          <mxGeometry x="32.5" y="40" width="185" height="60" as="geometry" />
        </mxCell>
        <mxCell id="6o1rjcuHU60eiY54TzUB-73" value="" style="shape=image;verticalLabelPosition=bottom;labelBackgroundColor=default;verticalAlign=top;aspect=fixed;imageAspect=0;image=data:image/png,iVBORw0KGgoAAAANSUhEUgAAAQsAAADICAYAAAD/XsT8AAAAAXNSR0IArs4c6QAAIABJREFUeF7tXW3MZVdV3kRiEyPyg0bTMjDTGNrEaAKMMWkqzEwkGs1g4kciGONMIS3VEP/UBAXMTIuamIiKJHZoCdP+gJAoVbEoKmZmAGtipETUH4WETi2UhEBsAhKrQJ3nnrveu84+a+299sf5uu8+yc3cee8+e6+zP56z1rPWXvt5rl2tB3Y9cMw5R5/LzrmrC+kcyIRrKfIspFumFeN50zbXWpuxB84654465x7yFh0W4hnn3MktUNx+7TuAYuyLQOnEtiG0j0/oIrAgIHty+yxTyDt2fyy+/gYWix+iYgHPXavh/PZzD6sN4EEggUU4NkhwUIqBQupDQ34AxpVrgPdg6s2tvK0HGljY+mmNpbAgL261hVNMWwB4ACiweLHIsLg4iNR6VgIH1AewmupqwDFSTzewGKljZ64WC/WJLRiQxoC/ATzorY43MX6ryQOMqT3kdCkBB8Cw5nPmyLL6expYrH4IxQe4tNUcbtr+CoDA3+jCm76mNgFtBUABjWWJ15ga1BKfdxSZGliM0q2zVopFC2CA6YFFwoGiJjdBWkSxiXHs2I3u5Mnj7tixr7mjR1/onPtXd+zYThE4tvWFXN7SmFeuOHd1+zP9zdjjDTSMHSUVa2BR0HkLvRVveRB9WFpkjkDUGkBBAEGcR3IX7IDhBnfixHF38uTTzrnHnHOfcs7he9oF0ABgAEAetFObDTTSunlTuoFFRqct+BZazGRiQMOAZoHFQZpGjvhFWgQA4uzZ0+7MmdMO3537qy1A4N96VwZwlPZLPeFXUFMDixUMUoKIAAaKOcDbH4QmLu4NSahuo5nAvZpsahBAnDt3J2vvfuccPuNfAI6HrkWUnI9L3rQM43A0sDB21AqLPVcIFBSfYX50GSBwOxSdulqEVSiAxvve59w73hG9ozbpG21wbQUaWKxtxGzyaoFYlrt5fIalvDt//s4t/3DcKw8eAkCRzkWYGk4oBNB417uc+6M/Ct7UzJJA9zSwSJhwKypKMRYwP1IuszahaxHUHDSJmt7ZlMfQy/7zPzv3Mz/j3NM6fjWzROm+BhZ15uCSaiGuAjEW1kAkP2BLfR6AxLlzd7izZ18beGZoFG9aUp/0ZAFgwHNy331BEZtZ4nVPA4vFTulsweABAclpfa37AVtiwwAHgETnzQhdeGX/dLbwU934ta8596d/6twb3xg1SyiwbSrRFttOA4vFDk22YDBBrBOce0zEBgEOFy+e2wRN2a75yEybfLtSAIxHH3XubW9z7lNQhuSr8RjbfmlgkTrDll0ei5/2Q8QkDfITNnPDb2IdWgWX+n//17lLl5x7+GHn7te9ug0wWlBWbD2t7ncAgMX8CGoU0CIuXXpPxsMvm6vQHgiA8fjjzv3TPzn3Jp1qOfTEZ9MsMpbEgm/hQVmamEGggBu0H0iV8rTTBV2lSGUpS4ABF+tdd6nekkMNGA0sLDNpf8oEyUxoE3ZuQuqU9fAVkvTgMAAWEcDArYfSU9LAYn+AIPYkIwMFml83WOAJvvSlTqvA55FHojyGlUiOjc0qfm9gsYphKhZyAqDYD7DIAIySDXrFAztlBQ0spuztedqi/BaUIbsnRbnpwasDO6j7IOd5/LxWYYp89avdvfCSRDwlY+cvzXuIync1sKjcoQusjrapD0SrCxT7o1lQR/3bvzkH4hMXzJLDTnw2sFjg6q4okhpLUeb10CRc5n6Q3P4kD4kRMNDMXsdjNLDInUnLv0/lKfLjKGIPvV9gwfkLenIj8TlWxvTYAIz6ewOLUbt3tsp5Or2eEIjMfOKJD48k2DqDskKdAXfqZz87LBHhMXDD3rlXG1iMtGwmrhbgAE0CJ47R92JC8+rVbh/31atfOniceBwGNpHNn7+iVv/DBAF3IV0RHoPMkr0hPxtY1JpV89QDTsJy7N9Gui6D9m7XKIGBc191V68+45zr2LyrV7/hjh37Dnfy5LccMmufOIF76QGxoYx//AdfbxSnNITcK+KbIvg/YjECuTEIMPbCLGlgMc8iL201OZtVqEEAAsBgCAwxMQEayLHJd6TujynCTZDv/E7nrrvOOeTC+MIXnPve7+365j//07nHHusAI7BzdS+0jAYWsfWwvN/N2ax80QEGBAxHj+6+lz8iwAJikdayH6YI4ixe8ALnABTaBUD5+ted+8pXujBxQ9TnarWMBhblK2WqGhKyWX2XO3kSpoRzdUEh9KgAigtbwNg/r4hlkBEqDtDA7tV77gmaJ6skPxtYWGbB/GWi2ax2OTFBRs6TSbvrJmgYSLm3H9pF6tDz3asRLWNMwOBnzhLRTafM419rusXe4zewSJ0N05cPAkU/ce5SNnIRj7HcPJxjDiMP5op4TMYADJwVEzpzNvuw6AYWY86a8rqDQNEPrloKUNBDAzAe2Ss3aspw+oABs0QhQGsCRgqflZybo4FFygyYtmxCNqulcgQgPvdjY1nO0BsBo8YZtBAvaqoqz2AOUW9gkTMLxr8nCBTItI0kut21VKAYv5PW0ALlx4CsAZMEC7YkN4YasWvsI1P7DSyMvTlhsQSgGD+mAe5AuuBdwdsS7kK4E+FWnPr62Mc6GX7gBzrX7xouvnsVpoiS5xMuVUR75lzizmL0z9mzXVAdxhGmEB9Pr6Fo+w0scoZmvHsSTI8yoKBJQ2nknnyye6jPfa6bUE895dy3v+3cz/+8c294Q/cbFikA4kUv6j5TXZDnN37DuU98wrk//mPnfu7npmq5Tjv+/pLAvpIc/kIFiidwKAS7/uM/nHvve4NHOAYP0G5gUWc+1KglAShsKfexyC5fdg5AQKBA/2oC33ijc6dPdx98p4sAYkptArL/8i93wHXnnc79/u/Po83UGFxjboxU/kLkKaBRXLy4C9FHcBlMoG9+07mXvtS5d7+70zKEC25V9cjLBhY1ZkJ+HVCk8TlxrQq8VcSr7/UAUGCkw8QhJsN5tcZ+MxpAoBTA4YYbpl2kALTbb++ADrKdO+fc618/rQz5Qyrf6WsXAXPExB9s542nO3Rt4xwU2suDHbNo+2/+xrlf+qVOI8TfAtqNql00sKg9K+T6yLo+s/05afNX/wyPeOq6U6e6hRa68KYGCLw2cGQp3lBTmhuQF3JDflwEFDA7ppZjjGnBtQvUD0D/Kzl+LmgObIEC5seAteFAwcnVd77TuQ98oHsqyEEchuDOVbmLBhZjzIpuEJOBwRdlmKQmvqPTChQAC+3CwpyDPPSB4sIF5265xbmbbx5nkKau1d/BCtPgp+VjYUPahRr2D20CYIGLazK/8ivO/eqvdmQnLpIDQCWYI6ortYFFnRnDw2sPNnOXVD0Eijih6QMFcQ58C/Xx4869J3DYGBbmlLwE76Obbtqx9ZDx1lud+6EfKunFZd0rJdJRFiwEl7QLNeiKAwXPwUHmxnPP7foCHAYAIwBWItHawCJvPlUHBy7GMJtVnND0OQoChR/+4V3NAI8PK0myABDQJkI7LPO6ynYXlx8cBcyjOYHLJnVaKSmRjjH2IriJEOPGPR/EUxAvArKTtApf64AbVzBFRKKzgYV9vAkgjLShvWIfKIanlsd5iuexkSSg8G1ivK3xm38BKOZW9Ul+kn0uUyhv1Gx34W3+d3/XleXjENAuwB9AU1UjSnzPBwEFaQ2vepVzH//4UD7iTxSiVTSDGliEx5kAAtbeJCFAw/T8cZ4CnoMHMa22k5DMDK5V4E2NN/YSgYJzFQRoMD/m0nJsS99eishEGiO6k7xQAA6YC5HkOYMGNY2Cmxec8OQV+KAiPA0CxLazqvu1gYU85lhW1QCCUtlR/soHH5Qp8CFQxHkKTETY+ri4mcHfVpr5sQSNAnJjEQHwCND2QavAuDz0UPdsgajJg3FDXEvgIKPBLIVZAfOCLt/0wN85j+FXwMlWqynSwGLXi1XMDADDsWM3bPJdnjhxvHfQMHJenjp1l9vlvtw1DtMDez52V5ynQFmuVXAzg5sgkvmxFKDAMxBfsXatAtGvcE9CU4q5rvniJRexRbtA7MyZMztvFR3mDD6EmxQhoEDbRHLiu9UUaWCxc3NmcRGUTwKd7oODj+anTr3JXb48DKaSD/yJ8xQb1XA7gr6Zwd8W//IvfUmg3i/Jy0BgATnXrFUgrgHPgP69/vpgHMVAUwBgaIl/aY8HNyMBDihP0Zk80U4MKKhxMnsCXpGeR+Ywg0W2JkEAcebM6V62bNmi6f6qAYV84E/c/OBvZHyHl4OHZxNYkGeBy7Y0LwPA4tOfdu63fqt7Y645AIur94ihiGT+Dk2ZjRkBU4PHvECTAEDQOaw+OWoFCjTMg8QUU6TnQj2sYJGSJGQzoP2MVMExHvx4++33OImnkIHCZn6gEYpLQICVH2RFg+9rFQAURG4u6SK1HdrRPhCb4A/wTBiDc+fu3JilHbg/IJqg0lgQJwFwgBaBD/J78qMUeUIdAApeDNxFGhtjw+HPPRfqYQOLpBT6JQBBA3XPPfe78+fh0ehf+slgce8HaiJSEN99QMDfMFHJFqaWl2Z+kFw0acfmUYh0xAL83d8dz9uCdvDWfvhhnncEROfT7qab5JBNPjtIo/iv/3Lub/92d+wAtBR8/vIvdxqLZKLEQIJ+T+UtDgtYJJkcWMjDWAfrEOzKgZ+A+SEBhVy/XasgYlMyM9AeMetc41iiVkF9A/u5Nl9B4IB/Aa5Hjjj3Uz/VbbAbU7vCInz0UZgKPmmtm6N8jvAgKto5DM8K7Rjm57xI7nDrTOURpRbe4jCAhTndGLwR587dYeYhQoOiAQXuGbpIqSZ7RmwiNiWtArXRBiXaKLZUrYKDRQ2+Auo/1HPfG8FNtRrthMZ+twjf446z6KuQN4zXp8VGWEEgpRyP7VA4lgPeYt/BwsRNgDvAm54f7ZfS4X7ZkLqpA4XN/OAmiKZVoAwmAd6eRHouWauAvFDbsYhz96UAHKBtSTENFPzEtayxAQPP8+Uv3+i+//svuAcffMRdufIp0RMmzTM/PLtkLsbuNZCcB7tQ9xUsYHaIW3h559UyN/wBSXOR4m67+YHStGFM0yo2NT7d945IYd6xicR/x2LcnXeacqetLEjB3L0pnL8JtQbQwE5WAtCxyFQ6mez97++kQXsvfnGXfAbXt77lHNysNE58Kzn+BjOpxLyw9XhXioK58F3JcXFAcu4jWJjMDjm2IaWb5bJpLlKqw65V4A6YIJIHBJMSdv+zz3aTEeowrhomCFT7MScwJm3O/hQelGYZPQ4Y6BdsgZ86rJzGhcbID4qaEiy4RyQWnLVvYBE1O2qbHHyCprlI6c40rYLeon5chW9mcKa71ARBm5//vHP33mtZjnllsHBSSceUbGBcKr5Nv7Rv8p62u4u4DZ9cTImVKGkf9/J5EiM5S8ACqn7WMWjbTVmUTg6pYnsbVjI7QExcyusaS5tAG5qLVI6l4FLZIjXpDrxJMcD8LS9pDpzpLlW3ARYf/ahzH/xg5sgYbkP8QMobnm8+M1Q/KMJD4Ev7x9o+T5JMJh1xBnzTn79BzFp/Tjk/xwaXg9W3ieTMBQtssqJj0FJkxH3IN8mPV8M2qFzQQdvRA4PH4ibowUMu0ieeUBJIbG5OP/MDJkhMq+BvrRomCAAKmaE/+cm0BZ0yMVLAohQoIBfXLojspMX8f//n3MteliK9XJZcnVeuyPlQARhvfKNzL3yhc3fd1Y/25MlqyiXRa/BzbIQiOXPAAm/whxK1AS0YKphN2NBJUaCIv9kNrQSKpMdS8MpYZhqDGHjDf+QjXVp8fmnkJWzQGmo2IkXBhSBAaO5QbL7L1tBlahHiLrCn4t//vYuLAAn5utd1WcRLLorvsCZMltqaCizQNnef1gILWphY4HIi8eFTxxbzYM98wiDF6nZjmh0kJyLypF2kuouU7kwjNXEXdhvedls/cUookAkqLjY0pXIB/hhAm8Hi+sd/nCc3J5fHkmM0YQ5tngvbw+++O98bw9vztR6KsEQZmI5WngWZr6bKg8rdpyGPiFWzIA9DiiYQJRu3R7blmCDR49riizVlSsllNc9HvO00UpNax5kPf/7nfVlC9nZp7AJaojc5FhWChXI8FuU93dVAQAFNCt4gfrIXTM1uY98N7sqVx8S9OFwOAok3v7ksvkMDCn+vBj/egO7xTwyDuUfXlIFZHCwCSXxv0sACnAKRjgQUKecZIC1HLHFt9Lg0ZZIFgWJsfoJk0gjNOFCghjRSk9r87d927id/ctcrsb0Uue5IbQEgrmMqMtAfe3ojk8uYM/eSqYn9OBgj/+IBWjVMNF4/RdX6iWk40FF53z3qm1dzaRYh96kPFqTaw8yAFsFjFmJnGaAfTDEO2w6z1Cfhher1mAYonnaXL9/vTp16ZCCbzeyxbT/3K8exc9/3ff1Aq9jCzXFH+u3ygCcQqyDlcqMsczUMyHDffc69/e3yNvznnvMSdtAE8/KHENCMkZyY4j0koPBNE0lrmBMseGBWwH16vQ8WWIjESfA3uOUMRvH4PUooSgfHsAlj1VT4HAu6R21v9ZwpC7MB4IAPdg4Ow4rtRKp9/weX9EMf6tuwMa0C98ItVrqwOVjA3Tj1gT/Ic/HMM859z/d05Cpt2cbzQWW+cuX4Zq+Nf3HimXbf4mgBClzLmQWhe6BVaPERPJlyyLzg82pKzSIHLMh0oKPfaWFaeAqRn6DOC4TjppgikI+7XHtjVx8o+gBBjUkRg/p2c396pZOaVAMWBk9uE9Mqai0GTsgBLH78x6cj3qRn8HdKPvDAje7D3vkGHCgog9gY2gTJR/NbWuBcq4hFZnLydi6wwDMpsRa3kGZB5gNpEFxLiJkL4tuedwwhppI6LFY/5A8eGlwXKAASD2xjIPrTVfPv29rPIzUhgb93wKJV1AILKcdn6T6TUtn8Q4avv/497tZbuzMOOFDQRrva3IQvPxY5adAhMy7mDuVgEStb2of8fv+kNGX36QFYUDZr0ipw4CrMkNibX9Qo+K45vsBo15+XxThm4gQJTdtCjXWtrEVIk8Lf+mzjKVATaCA5q3dMOv+MzKm0CsjFwYJs/inbl/oGgUSPP77LGvXMMze6l7zknHv00acdQu7J7ACoTZFCEGaGtrhDXIY2v6aM4IQMPlgosRa3kWbBuQqrViGSmf72Wm6CAOkxgF60WszMUXmKcqAgkBiy5v5ASv5xO0+RR2pCBj/Cbuy3pP/cHCxIpR97e3cMPEnb4mnmiMWnyExErpZsebfIgDKY308+qW+yI63a4golzUIiSa3y5JQzgsVrCSxwEiKFXRM3ENIqxLe9tA8fx7zTVl1SCz3kChGdaqyG/Y2udV8af8BJKqrRDlZ5pKZvgtQI3U6dTNIBRrUzWqXKROUpszUAlWIuwKtMBRSkefHzO/xnoXljMSsILGLcRm5/afelggXe3tuD7h2ZIKHoysHbXmKCwbKiA3iGY7wZgf7sqHkNLFQ3rP2NLnVP+lteIjWRVQsJc+JXGijx+nytYgqVOqRZYOyIS5ybtyA50Ud/9mfO/cEfdAc+TwkUZJJqeT7IHWrVFEgLmTL5DfqRe0M2BvM9vfVJXX2gWfAgLDpvWQvYGixi38biB58ozOoAgIVFp5of2JyVntUKJgd4g+G5HaEFr+1F0Hz7/brySU1fq5jrbe4DJSXcmZu34P38a7/WhcLjmhJQYYKEsmkTX2cxQSA7gcWUnpAcsKDt5gQEIROENI+D8eKdYdzyGgML1fthV/15E+m7O+luSauwm0D5WgXapw0+c5gf9Pw+V0Nbu5fAW0BG7Ib9n/+ZHijiGuUuA7vFBEF9KSaLpX1rmVTNguqlRRoyQUjz2NzDzQ8fKPC7QbOQzJBeGwfCmVV/3k35XogyrSLd3OFSc3fplG9Lf4L5YEG801yaji8f2dtTE7+WhQjNA9vTQ5wG1ZNqsljat5bxvW2KGXK7b2oQWGg5JgZvfNIqfPsagiqhowAidqTrwD0rBl/ZA5+oi/LMDt7BklYxPJNUG5J8UhM10gDOvQh8sODp/JbAW6Cfrrtu3g1u2gzA/DlxwnbwD3kNp+YruAbLtUnGKR4o2T5YkPdB4ysGC5lULF+VISH4zsBtq6ib8xHc5FFjKtLMj7K3OuQs0yrKzA/SKqYMvtImvB+IxpPGLIG3qLGz1voGTi0HsLBoFag3FAWa2m5qeZ7PAvdaNQuABRYs2yzba7pHOhLLK2kVuEvY7komBwcFMnlUoLB7HjYQtd3Vmdpl/fL5WkUZqUlaBf5dwuHFPmhyj8gSeAvIN1Xeh9QZlZLkmOabld9IlUUrL63dFLDYgItSuQgWfjgy3Ssk0uBaBJGpPGpUbNauVdQBijKtIm/7OT049eWcPAUfhBBYzM1bpKTiq7W4rPVAUwCfZwUyymVh1USscsTKSTxjzHVKdUKzCCXQ7YEFkZt+UAdVJsSY+8Qp2kOKPjX/hV2rqAMUkD3fA1IuQ61UeLFJkvK7v8uWcoDO6aVJkX+OsqkaD/o49WDjGs/Fs3tTfbFwbyoHAhPh11r2qh7BeeSI++ZTT7nnJ/AVPnEaTY1ni6koX6S846VoTZscZaQmtAqc+WF9G9WYLJY6/FR2c2TGtsi5pDKpYBHaXzLmc0lWgbKR7GBvCMkD0wBAoYHFgFeANwTqKB0FH0Anfw9I9NQwm1ZRFyik7fQ2OcpITfQfJticaeu0SemDxZTnho65UJZSd4qLtbbMpWCBRR26eqYItIu//mv3fA4Wis3Dt6KbMmrFoyTLyUT/QaWEsHHOpFwOqINzZ87WBt13n3KPyNy8Re3FM0d96F9EoM6hUUpWQSyfRUofDTSCn/1Z59761q6KyHmJuJe2wwfbtMUzlJGJkgCSCRIHrfpypAzI2GV99yn3iCzBvTv2849d/9jnyIbk992mKWn1rP3S0wyOHHHuL/6iu1VJ+AmuwgQSJECcIyhT+6UHlUyQ+Ka1umaQdQCmLBfyiECOJcRbTNkf+9KW5DZVsnvjkaX3qLkreuYIJ70UNlWsGDkScPGIsThHMM4CzeMrykhNc2/PWFByJfPxXoqbd8YuWmXTktu0xrkhUmf0tAtOegXQ6aAens3It5HiHEHaSV7WkUwHi3FAyyrvlOV89ykHiyUEZ03ZF/vSlkRuKnzjJj7KesiQ1D89zwi3Y1FY0y74uQ2kUUBAuuJ7QMbjB6Qcm2EzZDxZljYhQx6RxlssbbRs8kjkpuI23aS+LAELSKSaIiBKAAJEoPggQY/jI1mY2Mzfam7pPi1yU9Z0yj0gkCmWQMUi9xRl/EA1SrFHbS9hU9kU/bBPbfjkJp5N8YRsgilLwaIXpMVdatSpAA2ewt7vbF843fNQZ3HGBltyncr5K8oJVoATwHLqEN9YH0i/h9ynKN9Izpxene8eia8I0AebYMpSsBiYIhcuhMGBd48vXJjYzM9LkTIkEm8B0+jSpQtedq5yEwTAhKC2NVwh9ynkb7zFGkZxJ2MCX4GbNjhRChYDU0TSLrRu9HmNMLE5Dqnpy4a3PRYx/uXXEMjK5EEbCMQJpWVb0vSLgUULzlrSaMVlSeArDjZ/1gCLQQg493RwsWGSANFgK3lnh2yK6SbINFoFyaqdoLYDszKTCPY/wGgtWgX6ReJzKB8nfm8kZ3yBLqWEFF+hxEdB5IPNnzXAAhWKOTOJq7jhhh3RqXVY2AQpe4vnDNKrX+3cJz7Rv3NnjnwpO2cGAZE1iWuO7GPcI4EF7T6l9hrJOUbP168z0QQ52PxZCyzwROoZH5bH1b0g5USipX2/DBLB/uAPDu/sXKk4Ki9+MJF/N6ny1tTwOXKPeY8fwsdjLdBuIznH7P16dUteEMVlikYPMKImWMAcQUJ2+GSTLz28e54ISWzseve7O2+Ff50/f9ydO5d/pMDU2ZCSB0O5IQYWLZKzVk+PV09iiHcvy39NsKAnTAYNPfBp3LiK0JBQUhAl/HXDN2iHy0j1kks29b7xpk16zaEoTtTWPCLpfTr1HVKiKiVqE6L18s+MARYcNAAc+Bzd/hFZuPC9p33ofEW5ezJ3MAgs/OCyg4c71hGUlm3FBBTSqW258s1xXwwsmkdkjlGxt6nlylUCsQZnEI8JFtpTDDKE64f2TE9sktA8aEXbtmtZ/DyYac1axeY1c1PfpexzFs0jYl+4c5SUiE1Nc+ZeEJJ1EWAhk5vzmSDUOZwI0qLbQofY8tiEtZKafFLHwAJlm0dkDhiIt5moVQxMEPxhDrAYnGEqk5vTxlZI3W05qQlmCMK1ff7CdzWuXavYTBZvtviuU5RpHpH4wp2jhBSEFQjvFo8vnQMsBmelysFY83hB+ED6ahvMkbvu6p8Kj/KSOcL3mOyDVmEFi+YRmQMKwm1K+0BwR+BoUZ4C86DyOcBicI6pDBbz8RW8633tQuMvuObgb7qa+lTssaarr1nwCE5O/C41l+hY/bL0ev05DHkDHhD1UPTZwULOXzE/X0ETwOpqIu3C30MR4jSWPsm4fFKuDwksmkdkWaMqzd9AaDeEF7WKOTiLwT4SGSzm5ytoyEEMPf54/6iDkHZB+z7o/rUGYPlT3t8v4yc7ovJLBgssnIcecu4b33Du85/vDi1+85uXtbhrSiMdIIT6A2kvVa1iDrAYHAGwdLBAJ0kuJ0vqwDlOxK452XhdvmnlJ7+hsktzn0JuaEWUZIg2Ob7+9d3mt329NJ4i4CoNahULBov5yU1/EkncBc8E5peHlwRcxb5cfqYsnnOVP+OSjjTkJDNcujge8JZbukA6yLmvl+YmjZgfm9R5oT6ZmrMYaBZyqPfywCIxoCU5HHzpE9ePscDCo8zsvuxLiLXgZhMFjy1N6xljzOlkO2gW/AqcB4Jig2hNSbaFgsUyPCEW7QK79fzLEtk5xkQZq04pv4cUY0HtLyHWgjShwwQUmumBcYkcz6GSmnxOzQ4WQ86iLLHMWAsG9VpPnN6HACzejz5fgd8kT8iQ9tFKAAAU7klEQVSSwAKaEEALGhDXKOY8/WvMuSlpvtReBCii5gfVs0CwWPZZHD534ROd+6ZVYKL4JohGbi4JLBATAq3i1ls70KCLUiZKUbdjLuYx65aiM41AYTI/5gILg+t0OTEW0gD7qp6fNGSfPCAbY/Zyl5OUXyG+AuXmNkNgNgEowPyD0ORkJteSEFmLZ7HsHB5zsefWDU0XXAQ/lJzXFdEokoAC9U6tWQzAAkL0IziXDRaQlwJdJPfpvsRV0KTzvSD4e4ivWAJYvPe9zn3hC87dfffQPeqbVC99qXO33ebcG97g3Gtek7tsp70PIIGPT2KSFFpaBSYl0lEjV0XSNTVYbLDBl7C/kWz5YEGBWm97m39G6zrOAEmZIdJpuCG+AnXP7Q153euc+8M/dA65X/1L0pSozItf3AVpIev6d3+3c9ddtywXK8AB3IQGEniOSBzF5l23jdL08tfHZ0UDi3gfiSUwaP7hSftkgkB7glZBwUzUCTG+Yglg8Za3OPd7vycPbAgs6I4jRzrAe/nLnfvFX+y0k7nAgzQIAIRmbkBugzZBQJGsUVC/zAEWg12n/fNClq9ZoPMkd+JaN4xRGDQBgw8QfNnFTBAtKOvTn+4W3MtelonOCbdhYWnRmdoxD1r1eCEAOF75yu7lAMIUGgcHENxbM8jLChAEEo88Ih+t4T1TMkfh90kDi4RJyItKk25NfAUBBDa6WS/LAVLa3hAs4He9q3s73nuvtcX65VLBwpeAwOP06b65ReAE0ACY4AI4hi70BT7PPtv/1/LU0CSMILF5t20zX1mqVsvMARaD5Df9tHrr0Cwk4m/pYJEDEHzmxLwgKIvFJHEF+A1u5/vuc+6//7vbIj2HF0Iat9wVRM9Kh36PzdUAIBCy/cADw5wqyjOAl0AIN8Ci+JoDLCI5ONcBFn7sAUZiqWBBBzDjrZpy8UOi8P2OO+Ln2IYWDMACsuCN+NGPdh4IANCUV02wkOTmZguBZy6IEDiAH0Of4f8JVxVtgrc3B1gMDiPq7w9ZdlAWdZ4PFnhLWrN9Jwx4UVFwD/6Wea1CektiYtMntfHYJjKKMuQqNPoNgDHVma8SyKc+Z2p5DroEIFQHaWHoG1x0xGciMHCRoE3gyEFwFFWvOcAisk19HWAhuRSXstNU82T4M4erz7lvP15nyAShcjwClrv5tFymVWe7kEc0p37qK+lkr5z6Kt1T1eSQZJoDLCKBWcvdG0IdGLL95wQMK0hgsoOg03aN5kzemFZBdfp7GPy4gDE1jVJyk56BPEKJJGNOt8buAUDA3AhuLY9VYv19MWBR64Ry64OXlgstzKkT9FqIS9IiABJ+fEhpX5BqrRGbfv1SbhA/ETJAA/2IAKlaRGgNvsKPM7EkQarRv6wOAAQ+D9UiLq3yzQEWkG0Qxdn3iCxzi7rfqXMDRgpIIFnNWJdVq9C0C/xde0sfPdptZANolPIaCO1+6qmyXvA9QsqBwsQXwOQuuQgYUN+VMXiIFOHmAIuz144whEekd/VJzuUlv9E6dS7AkLaNcxlJkxgTJKg9C1cR0y7o95BqDw0Du3oRKZtzSTxTaj1+UJqQTt/3QsDsxkVHeeI7HeeJ7zjSk18Uhl2doEx9Vr/8HGAxiLPY9OSxGx32iHTXfGec5nQoAIO2Pvv31/aSWDwcWsq7nGejeyjYiCIVKfQY/88xE7RkslbQSPU81eIr+L4YxQQxJZIpGYu57p0DLAYmCD38jrdYF1hA/pCGQfZ3SUxBCJCo/2qCBCIxEZWIT81QZj7RpfMs+O+hVHCpIFwDLHy+Qjl7Y441NQl+TP1goglCT7rjLe7H/rlJOqBmIzEOIZW0o/ow0fFduygZbQlxOQU4+PKH0sChbIw8THG31gAL/yBogwlSc3rNXtfUYDHYRMZ7YMdbrBMsSMN43/uce8c79LEltR32N86uwEV/Ayg8+WQ/fb1WE6W1z42RgNZAIDGW9hCa4aFUcLjPsN1602+UxCbUVozjia1Ef1+MIhuCoRLjZGMtL+f3KcFiEIzld8OOt1hHYFZoGD/2sY7BL4jEU6un0OvcOAkABOqYAyD4Q4XSwaFc4Ii9Qd/ETn6zbE0PgfKFC32Xs3JO6JTraXIUmfLhBntC8LRIOPLFL+6e++LFc+7s2ePOOSFt9uTdU9bg5z7XJWHB5qkaV4mHAwBBWkQNWWrUEYuADLglRZdkCDA4WEBLiLVNzyfxQAqIVd+LUaOPa9YxJVgMTBC8GRHIA5WOrp0pso5Yi9hgwGsA5v7hh005B8TqckGCwGGJBxVrB+HwDlDe3vA2wA0pOlBDAXF06BAAAMFpAIzHHttpf7Q/A2CCeSm5nQOkK5LKJGefis2fJf0+FViI7lJ4BzAw/OyNnSmyPo9IaGChcuPMVD5Btbcb39SVE3G5FDMj1B8W16l0JgvLzaCS5ZqnhEjOXPANZKPae60CYzkFWIhAgcbJZ+1nIe5MkcfAhy8JWItlkbIx+5xGrkdjiWZGqMNi5GbAE8KTzao8mAYYnOj081BAmyC5fD4ooFFkJb8tnkwzVDA2WKhAwX3WPrPcmSLgLdbnPo2NIdRvTLxYTsVYPfh9yWZGTP5CcpN7HcSNiWhf85TwNII8haC2fyZyRujeBmH5YzgmWKhAgUFE2CxFAUqofenS3e7kyXfG5tyqf8db7CtfCSdi5Q8IcEDKNqRrW/MJ4AV8BXWHn09SBQzcAOJT25BG8SuYk762Y9hVemiAYkwzJAgUSGzrv1l8U+Ts2R9zFy/+w6rBIEV40jR4BmdybY4ZRZkiY62ypcFYWzn8hQrAwLyjvRg9ca0BccQtGfJb7nVMhTTWY2gWUaCAID7BNcxrgL0iaXnEak3mVs+4PRDjK3zXJMwDIV5FIhWDgEGmCYADHwTE4V8KhMO/AItHH40+/6HSKKg3aoOFCSioce4NkE2Rm93Jk5+NjlwrsK4eiO0J8eMr4DUDgHiXRiwCMM7A+hihV0ZLWTeCrNWrrAUW5PcWg2W07FExU+TkyRvdpUtNu6g+6jNWGOMrfDKRiHAlQCtkCgxyvRY+tvm08cJ2Fnt7DbDIAgrJFJFYZwQ0YQ9Fu8p6AIt07vBuacz9p/JNEEo2o0RNxg7OCc5NY48CJJCVaq8Drix9UQoWUaCI5R3wVVKf6ARQoI61XEtZlLy/wBFYU96N3c8xvsLXICjZTMB9aeEPUk2TSXNbjt3nteovBYsgR4GMRjGtwJ88fjBOyjbkWp1SUg+I2yWFV8Pz8PWvLwcsQnsyNBOExsN/kWz/nhI9SdmqyGOy3fO7qQkAgaxVe7trtGRe494SsAgGw1iAAgL4bjSJ6Jw6AW5up1LAVU7mqNw2Q/dR3+ZuYa8tU4yv0EwQkkPZFn5oIihrj0dqfSVgocbmp/IMcFnhjaxNitSsSKmdUKv8ksCCFiZiNG6+udYTltWTa4JQq4GQa4spUiZ8u7tIsxDBIufcjH3RLgB4+CxhcZKnCeOxFLMoxQTRDmFWTJEY0dmWeoUeKNEsxE08OWCxMRg97cJXSdfAXeDN+ZnPOPcTP1FhZAqqoDc4QsnnloUeo9QEoXqUDWbNFCmYL9ZbS8BC5CxywWIftAssUuRpBKkbI3atA5RajvcjzMFf//XUGsYpX2qCNFNknHFJqbUELNCOmFMzlbMggdeuXUD1/8AHnPvRH3XuNa9JGYY6ZfnbG/b9+9/v3Ac/WKfu0lpCUZsxL4jftmKKHPqgqdIxit1fChai6zSWD1ETCpMdCWJCu1GXHHeBBfGhDzn37W87d++9sa6v/zuPiIUZ9/KXzyOH/2S1TBCqV/GKNN6i/pTq1VgKFsrpYvmBVLG4C0ifq7mM3JebLFiwqZGs95OfHLu1Xf1SUh0EN/3O75Qf+VfjKWqZIBHeooFFjcEK1FEKFmqsRcmC5iqr5C7L5UXG7Et6ewIsEGOCdP5jXuR5AUfhX0QCQo7S80FrPEPIC+ITlv5BPlL7SjRnIzlrDNaIYLF50V87sHWwe6MkkMonOyUGPNfUGas/SWaStQQsJRkp3wX+5TEpUlnyJNWWIafvYlqFzz/4Bw83sMjp9XHuKdUsIJXqQrVGccZsXClR6tICtWhR1AALAgMAQ076PcqKvQSwCKXPkzQEfpaoNuUDwVk15vM4K20Paq3RuWrCkVwyUnobSROrRHupPXY+WPzmbzp39939VngWrGef7X7D3/j3Urm4FoaMZHOGnseITV+rsJgg6J8GFqWzJO/+GmCBltXQ7xxzQXOzSduUl/D2RAfQG5QW64/8iHN/8id5g5J6F2WRAqAiHRxxBHODRcgEkcCfdpjGnr+BRayHxvm9FlioW9VTIy9D50ksmeykBerzK5TanzZzvfKV3TF4fMt4KP0/AQEdgIP/03e0GSIP5wSLsbSKplmMAwSWWmuBhcpd4AcrvxCbYKhLIjvnNke43LGTvy2DouSctNzaKzOn1hXSKqQ+8k8ojz3sYTxrNNYnY/9eEywgq3ieKX7AmaaIJjxypHskpLRH5iZ88B0XIjglVyDvBI3szCVTa3QwXxg1wKKGTKhjLrCIgb6f4MbKVfB+UcBi748QrDU3cuqpDRbB7Mp4Y/qnUecILZkjuWRqTvv+PZzxb2AxPOaB95cUfWnlKhpY1Jit+XXUBouN1RE6vwGAcccdzvnHw6U+gv9mmdMU4bzB3GABQvnoUeduv5bKNodcTh0Hv7y/v8fXCv3zS3O0CtTZNIvSkUq/fwywIMDAJjPxyj2YliqTFuRc0YqW8PRr6dqQhRrXUXYIDqV2o1Rvg3W3/YN4aI5f2OeFKHU+gpymulIDsCCXJa5Ckl/J9t3MkBEHeyywgMiqO5WeJ9cskXYdzgUW/ptU0SxyJrE5lb2kQUAuAAb6ZYordiq61C+WaE1NdgUsWsasEQd7TLAwA8bp087deaftKTU1fw43oUTkKfKlTGJz+nrwNACDOQOvMGoh04NG1Tcb8KIAV5F7NbDI7bn8+8YGC0gWPVIOhSymSSAYxz33XH4n5N4pqd2FYCGGzksmx5zeHy6PBSgkTTDVVer3QQOL3Fmbf98UYGEGDAINBDD5wUuhg2rn8IRo7kHlMBzrIbpiMiEaXjrcd0oeIjS1Qvs+6D4pUjOX1OSyKAlw2s7TfCyI3jkVWBBgjHIG5RyeEI3MUyaxBSyCHM8cno1SoMD9ktcil9Tk8hQeOhRdGK3AsAemBIuDF2TItZozSFOTmyEyT3HpWcBC1SrmCq7SxsKiUeDeMcwPg3bRkuDkLCLDPXOARXUtY0py08+1wftYMUFQxNLPIljMoTVp8wamlyXKFvdL3I2W3t8wT8Ui7dCh3J7Lu88yifNqtt1FZ1BCBTfFE0jVTkVuhoAiQL5aj9cTKdqptSZt2PDsAAq+zV4rK5kIpd4Pqa0GFrZFVqvU3GDBTRN4AnD2JIDDfE315o3FEShcBZ7D6jZdLFiEQNIfKA00S70fCWBh1eTMc6wV7HpgKWDBx4M0DIAHIh7pErWPKd68MfdgIMTbqlXgGatmSq81wWNRmbwdaZMffi8Jvgo9h2L2NY9IrcH36lkiWGiPKtr0Y/IVVhtdITVTwViM2JzDLUwDYCUyUV7zTtTmKfjkUGItGsF5yMFCdSuOxVfEzA4ajwrmB1VV9TjIkvliBUlqQ+EO3JhAgbYVkE7R5kq66dDduxbNQsyTMQZfAfscqncsr0bobXqNrM2ZsKMcq8BnNEAA+UNClxUkUYdmduC3GoFXITkDIN1OJhsJxtYCFiL5V9MESQEJg1aRs3FM5S1qmCIUcUrJhl7wgj5w4HccpGzxdkSActM98H5As8C+H1yUVrB0HgOgQtG8CYRyqSiH7v41gEX1U8+kUU6xz3F/gNQsebOpe0NKA7NSny+0EnJzdlCuUZ5/lIDFsvIAFKGco9jT5pwDULdrhB5YA1iIxGZtL0jM4+H3vUKuoVhpn4pekVe/2rkrV/JmQIrrM9ZCIPAsdusUv1vd1FPIsndtlE7ssTtkdDueHiDFRVjJVar1napd/P3fp5/OHsuHaR3AED9hrWPkcjk80cgi7Vf1SwcL1QtSk6/AkFYCi1pvNlG7gBr/mc8496IX2SdhDfMjsGmLC4L9L4iLgRk29VVi+k0t62rbWzpYqNmiSm14f8QWBhaqRoUkQTjtDMAR82zUAAoDPwGeAECB+AZcFMJP6QIH5+BWWC1oEx+0eU+F+loVhh5YLVjUdpsuDCwwdKK7mKciRH4L36uBG1Pcn6E5YuAnrAFQPN8oNZmyFwjAQBcBhWF6tyI1e2DpYBHMHFUzx4N2ZKLU2YG3rWUrunX8VO3CD3YCYNBliQ+JCWDkJxpHEOvIPft96WChLhgahxqAkeot0CIWR/Dxq5zNWPstjPxE4wj2DAgsj7N0sMAzRLNcU7q5M2fSk9emmB/UoQH1PDcYKzRWKtlZ48Am3nAABLkJwPkJyxxrZfakB9YAFqaEvxgPHI2Izy/8Qveh4xFprCg6Ef9Cm8hV2UeMsZCmldkcKZmTGURmSXPt3hX2wBrAAt1qBgw+BjzkuFa4MeqvtMs0Zbqo5gi8I9ZjFLQGQ1nTt/dYicyUZ2plV9YDawELAozshL84mBng8YpXdPsUcsEjsIFpbMJPNUfAX+Q+Dzo28Ez4ufETK1vUY4m7JrCgPoCWAR4jKaOW34EAD2xv948doP0LfnnDBqaanhDNHAFgDFyOkDkXMCI8RQOKsVbeCutdI1hw0ICmAfdqtcAfDhbY8JRAgI5BbvpTSnUl5wBGxPPRNmWtcEGPKfKawYL3C0UNVgWOhI4f2wThoqjeIcupblSRwfNRK3Q9oRtb0SX3wL6AhQ8clPwXIFJN6wgM5NT9GHQnAzTuuKNLQMMvMqWQDwLfA1cjNJe8ameSbepJPsdjEmAkZw43COvvizDcUqUIaVLBTVsADZ47IpILggRr5keVIdq/Sg4DWPijxsGjRPOYm/wzn7aeOG2b+ZHYYYel+GEECwk8aIcktA9c9H9elnY54m9L2elo0jCMk3kuLckoXis2dw80sJh7BOq0Hw2JDzQDkABBuxQArNMjrZbqPdDAonqXzlZhqpbRQGK2oVpnww0s1jluIam5GxnlyBvEE8Y8udUm9u/p2xON1gMNLEbr2lZx64H96oH/B7XYHf1w+U5gAAAAAElFTkSuQmCC;" vertex="1" parent="6o1rjcuHU60eiY54TzUB-44">
          <mxGeometry y="170" width="53.4" height="40" as="geometry" />
        </mxCell>
        <mxCell id="6o1rjcuHU60eiY54TzUB-74" value="" style="shape=image;verticalLabelPosition=bottom;labelBackgroundColor=default;verticalAlign=top;aspect=fixed;imageAspect=0;image=data:image/png,iVBORw0KGgoAAAANSUhEUgAAAMgAAADICAYAAACtWK6eAAAAAXNSR0IArs4c6QAAFRRJREFUeF7tXYuR3DYSJSOxHYlOGcxGYCkS2ZHIimCYgdeRnBzJnJoC9jBckngPaIAg2FvlkqsGxOehH7rRaDTGodLf7Xb7NAzDL8Mw/DqO46/yr2va/1upJ9bMyRD47vr7/fF4yP/Lf//Iv9M0+d+KDWksVvMwDEKKcRy/BGQo2ZzVfT0EXh+Px+swDN9KkUWdIEaK60lpIyMWsnwbhuFVkyxqBLndbl/GcRQzykymRiTmot0QU+xPLaJkE8Q0xkXFsP1hz0SZpumvnK4mE+R2u8lm++sPpv4npwP2rSFQGAExvT6nml1JBHFaQ8hhf4bAKRBwJKG1CU2Ql5eXv01rnEImrJMLBB6Pxx+sx4siiJHDZK4DBCiTCyKI7Tc6EAsbQoiAbOA/IvuSKEGMHCZZnSIAkSRKEDOrOhUPG5YgEDW3dgli5DAp6h0B2bhP0yQHi6t/mwQxV27vomHj8wjskWSVIG7f8V+D0BC4CgI/4rh+W9u0rxKkpGn1eDzksGYOV3b/DYg34SoTZeN8RuB2u/lIjQ/jOMr/h1clNOF6vd/vH5cVviOICzqUAxXNP5W4GM0OWV3nRUBI48KcVANj10ytJ4IUMK2MGOeVw+Z7XiBQ9p3rd0kQCVnX0h6rKqt51K2Dp0Pgdrt9dVctsvu+1CJPBHl5eXlktzAMQ8x1ptGG1WEIhAgo3kd60iJvBNHae7gjfLkGaX+GQFUEtEgSRv6+EeTl5UXculmbHtMcVeXBGltBQGmhf9sezATR2JyL+3aaps82a4bA0QhokMSfi3iC5G7Ov9/v99+OBsbaNwQ8ArkWkbeGZoLkHgyaaWWC2RoCClpkNrNGBfPKtEdr0mH9mRFQ0CK/CUHkVFKu0Sb9mfZIgs0+qoBAbsCteGSFIFn7j/v9Hr1TUgELa8IQWEUgR4uIuzeXIGZemWA2jUDO/lo8s2NmBbuXTZpGzjp3CQQyLaRXIUjyAaGdml9Cxk49yMw99vdcgqxeMjk1otb5rhDQIEhygKJt0LuSpW4HkxOEKxrk9ARxj/PIBM8P9AQz7R9Y+dffYGzp9mKk3032OWTRRv+bwzxHxk9JEHcN8/fgCia7+hV/eGWrQ843/zuZvvWw/q4QIrz6iuIu/ZfMIVVehVp26jIESRSu2CRGcyPFKkB+17rU4+70S1r/4s+P+XE5O15eCsvN5K/6dgeCu5TpniCVsjsWIUqmm3FTBlISMaMCFRCj1BMXs0aZpqnKvaGuCZLphWBlQm5DylsSdJr8ZUNnJrWMpQbutcKUuiVIjUlaY1Du6uzIIfFtWRfQQHZDOWbBuuZiuTFMTFu5WCNtdUmQo8jhAU9d3RSio5E5f1dmK/EZW1kpk3CvH6lYo2PrjiBHCVkAeFJGlsqaYykf2ZrkyEWpJEl6JEhWhDG6smyUSyKH85Yc+vpWjpA1sCjJ/q9IZEZXBEmdKOf+FDmVtKbh3y9EyspkcuSuvkH/h3EcfXpNeg+TSpKcoFU533g8HuKREtezeL58ilB2rcrWgmsN9kYQSnsw5wKRA8ZkcjjtQQd9xjaoiZkD6XEkLkoizOLxW3XVph7mphJ8j4ldEYSJLs6JJl4c3NFCFU5IgoDtCtdyshlM5FvWVEnYmMN4JeTRhetG1VM3BGEETWOlcbFEH3LTFZGn5EkCwJhADDYM5o589DkR67xgCR4jSk8EQe/HN3WTkZiArH4zmgQVMubMIyf3GaOlGILHyOHM3+SA3KaCFdHJ0gYQAXmrDLMC5/abFDJ5xTUaykHWmeVlIgiepGW35ohYwN5V0RpBoA16rqDlEGL5LUpqZ55AQrtDRlTDwiEzhOmWpf1kTDXJGGJ4RYLQdrAmKRYbdIjU4gLVyD6JrsKoOYQKj8aixLjCURMRmVd0jGt1nVWDNJMHmNigaxEEOoxECFLTPPTChwprjodyxQt4rT1IiisTWWlSyqAmCiKwSPsEIaN2PEmQLPMwIAh0XqQVVX3JTbojiLyE9a3mxaE1ASYIopIiibDjoxqLJEjWBj2BICp4dUWQhMFUvXizQRB0RVSZcMYpEEuqccSeoPaCkiBTT9Pc1B7EDQYSuIWw+jvb8/PSNbUKsWk+NUFiZEPMQze/ansoos0+9iCsK3AHoPkN9sfj4d9i9++yq7/JbgRBxfRnOUKDqDliUMdA814s1k7lpuattKq2IQii4ppmzKLYqq9prqFzgToZtJwa3ZlYiloEmjPxlvzI1vGaapYZQSCY3woZQTi8NkujgqfUHHzyvGwP7aeW29I0CD/j3ZlYTovIxZtaiQ9m1Jm7Jaw5aAT5iZhpEJ7gm1+wYdIaTbMhFaZBONSNIBxeUGmtB+Khxn5qEtglawRBUTUNwiGVULomUdBgOSMIN5GmQTi8kkq7+85hEmU6uUGsYdTNaASJIfn8uxGEw0ultOxVXBZD+TfMYiL1J5MH0SIHEOTTOI5fEeCAcxD4fkmsLqQ/UsYOClGkKpVbaBsqOznieboKQZDFAplSIwiC0kFl2AwbiJlFEATe+O/BQ0TzDrFVnzlTMYIkCG1sAhKqLP4J6zqOjZEgCB1bJKutJGSbpkken5n/CIIg4e6wiaVIECgYlfEkxoSmy4PC2KBzfieELLoKlzIZwnpDYUE3ucgVX1KDaF2YgiJrjSA5Ep75LSkYuxeFCIGN3vDzw1ojnRcYVGNJfNn9fv8YgwpdXZH9WKwtt0lHCaIS3Mm0udb/5u6DICBrlCEEQ4sgUZMn5uWRPdE4jp/A8aMEQU2ebIElbzCqaCwjCCgty2KKBIHdrjE7HjXXkCGjJgraJuKwiPVL07SNtRX+js61aZD/b3QlEFJWzuhfbJNOmmubqzBzNyPa6Z/hMtAKTJiIdM7fZT+JtiBti+DQtQZxB4DqtwCJlQyaKK19AdGvqGzEiO0rYIiJaqW1zjHmFbp/ioLgCnSpQUJAcyZmDUTUrEA8QVI/sTJGAyGVSAIR22NDEDxZixCYRzFCiRGMD3IMnMbEWlttUu5qZJIDnihmFZY+Ae+CoNkaV2WFXVAYgru7/pvvguRiLt+j2g8lSlcaBFDFc6ofNnuJE+Lff6hvONwktqlebAQhb1Dwze677BmahNIeTgPCjgbf/xjJXb1yEPmFxJw+UI0RpRuCAORYYuETMPzrnv+S3+dnwIIgxTDqN4Zl+DslaBkC/ZREwguTEyw60JLVHilmVgCSzx4jWeR95pgZ+x9OEGoxCoinkqBusXid38RKIAcj7HRZ1AuUqUXofkU+oEgd1sWG4Gh33JueYViNVhun1yANkiNJzZ9dyDK0oIYsJ5M71ngPBBFbVe440CZFDJyE37Mm6mAhm4ebambJt4y3KQHbrU+yMI/14/QEcRu66llMVoBVmaiaV4O3hCOTJKzDISaje79TD5qmNNQFQfzASZdjCl5VVrHEJ5w1x5OlSSrNAxQvlgtKVwRx2kTcjuIerGJy5ay2e5PHXtDKFYS17xlX9fL7kppQI7YLxas7ggTapChR3OGjvDESfewSnYy1ctraxKVLlbv38kbK5l+KJ26FJLJIycGlnB9pLFjVn6zoliABUfyBU3i+kSyzWqfybAcyV2QRLCHzXwEumyfuGuQIx+e0odfqNFFqLUZrc9I9QRYT5UniDwDlZz9hy4kLn0GQg6zkJNUsGWKm1zAMe/0XMkjf5c+/ebKq5da8ZtrkWNEqok32+v+Ee0hqTRzRui5FEBSUK5ULSVKaHGfE1QhyxllT7rOQRLRN6f2UcrerVGcEqQKzNXJWBIwgZ50563cVBIwgVWC2Rs6KgBHkrDNn/a6CgBGkCszWyFkRMIKcdeas31UQMIJUgdkaOSsCRpCzzpz1uwoCRpAqMFsjZ0XACHLWmbN+V0HACLICc/As2xz0N02TD/6rMinWSDsIXJ4gct8iiC7dC8X2UabfSkb2BhelNKVkJriL8pX/91G+RvwIypcliMK10Hd3LDQkmklordDePIaShFfo46FVXI4gBTKHqN5yq0yQN+FzNw2buPNyKCMWjV+GIKXveCPpNJGJP4ogrm+SJUSePjDTywFyCYJUFLrdnLknIMjcRa0n05Dxtl6me4Kw2dMVJixrFa5I5t2hlsrWooBv1Sq6JsiBwpasSQ7s8zvBy0n7U1WKCzbWLUGOztmbugK3RBD3nsel9yTdEuSgPLFPa1lKEoTGCJKVYbHgwl6t6i4JkurKdfmX3qX4CfI6wQ/opHqFGII4z5m8bxL7k0RxPnlbSl4q9Xc3Yh1u5XfmiblFn783+056wqCgs4wUVzHrESIJQgtu4hj+KPH2Risk2OtHhiXy2iRB2L0Hu1dg3/Fg88iWJogXBnLiqySKbpEwqREXIletEgR+xJIlh5/ABJLAK30tgpQcQ4uCntonFiffjngAmyQIYV5lvefB7HMYM6sWQWQiS40hVRhb/Y7ByR20ziZpcwRhzKtU7RFOIkpGxsyqSRAZC+qlYUjeqqDn9Iswtd7M0bMTRPz7WU8XEHY8bMMfQBDoRSiG5DmC2PK3sacolm79FgkCv9mt8eA8sarA5lxtgqBjOAtBBD854CwZcOna+OBeBpDAzn/XstC3SBB0gw4L7N6KxsR5oWEbtQmCakENk7SUdth4O0Vi4v488q6LEeR2k8d5/kYmvmGCPMD+N3cW4vac8sLx5gGu1jUEBKNlmRYJ8nUcR7lCG/uD9wQRDXJqgtR2asQmhf0d1X6iRZyToeo9FyPI7SbPT8smN/qHxmXVNLEIAZOYrGynRhQkogCDk6u2OklOSxCtDSe5AkMCxkw8aratyR3p21fZsxHyHy3KkDuoLOuuTrRTiwKXJwh5jtAEQRC7fSkILW7Q0fObFaGuRpLmCIKuKloapAWCgKua38TK45nIHu2p2gbNK9i03cCnCkmMINxJtLoGAcmRW0zFoZHbifB7xrTdazfHREXGYwS5AEFKCxEiaGtl0DCfWP0lQ2iMIJ0TpMW9hxd41JyOEUR+L0USI0jfBGnOtFqYWfAZFEgS9YNQI0i/BGmaHF7g0TgyhCBOk6iSxAjSIUFaNquWgp56mSmycVcjSXMEQVeUXty86MoIloPu5YN1VS2mtWH3ndaK37o8QRh3I3qWwJykK0nhaYmx2JOgcXgQbBokOS1BJHjtfr9/hJDaKXRSgsghmVwUe5feKBePo79HLQiin1nxW0aQ44MVheRQhGrJC0SEwBUv2hJJjCAd3AcpLrEHNEAGYiI9TApNaZEgta/cqrfH7EFaPeVGJK50mRZIcmqCaAgXMQlwuLgRRI86xPygjVKapEWCwKerqFdpDznC3jWCoCKoXG7jvnpWK+ji2hxBZNToPQGNAzG0LcZrZhokS3ZXPy5Eks9rmUzCDrRKECjPU+7bF6Qgw6ezZL1wSlN9sTtXjSlJu2MjjAU5NkkQwuzJevuCOb1lzDkjSEws038vRJLNxa9VgsD7EIGaEV4/NWSoNbz/kPqNIOkEQL6sSZImCeL2IaiZNWPKhBWQ5KC1lBEEEfO8MrWCHJslSKJ7T8IKfAjGu9SViXUObIrT1ggi2SOHYZC77MuXqeiXqvLEmv66ev+WC22zBEnRIivwC1k8yElgp3jKWiEIk1aVFt2OPwhJ0jRBSqhRcl6pvYevuwWCGDnImV4U9wtj0wRxG140mXUeIu+/pk5cw8+PJggToawNWk/1NfvC1BLk1L1DzmSleMZa0SCMmzwHo96/bfaNwjXgK5JENIecsCY/zHO0BiGiA3qX8dzxtfnK7daoSoQbLNrSuoQFn+OgMUHoTJt5hSIFlWv3nfQdkojwfdl7TwIa+vtNWTQuB633SA1im3N0lrByzW/SSxMlxY0bg/ZggsDaKzYO+304nwZZ2cBLUmc5BJN/5awjet4hGVFK3uc+kiCCDxNjZiTYReD8BFkhTEiSkCxy77vow5CtCBsbStNKv1vrx6m8WK2B13J/GjhgbRkeuG8SYnTaPQg8yosWrOgW7xLh05ykd4l+pUGVCAuv1PVDmwkdN6ZBDp2K8o2LueUcF96RQTX6eDygnF1UpfmF5z45x8zm89EpzSwjKIwgKSjaN4cjwHgK0c6uhRcZQVD0rFwzCJTYX23F3hlBmpl26wiCQIFAzN3YOyMIMitWpgkECpzvRO/7GEGamHrrRAyBAuSAAlONILGZsd8PRcAden5VDk6FyDF7ynLuDrDJDA5F2ho/HQKFPFV/TdP0GQXDCIIiZeWqIlCIHHB2TD9YI0jVabfGEAQKkSPpvk8WQbRvwyHgWZm+Eah5xoEgKQShMhiGlRpBEIitDIpAgTOOpLS0YX9zCfIxJ7kBCpyV6x+BAm7c7OQb3ov1d6oLLZY6vv9ptRHmIlDIjRs9AET7PWaqNdifjHbIyl0LgQKaQ1UmhSDwI5ZrU2f7kGsJtOZoC6QoUiXHbGLlutTMzNIUmWvVlWm9PIEliTiYA0AU6VEK5niymLf70E5ZuWsgkBPFsfCm0geAKMIaBBFXWtIhDNpJK9cfAlrmVWnZmwmicDiTnAm9v6m3ESEIaBAkJ8E40sd5D+IIkp2Nr0SGQnQQVu6cCOSY9jXI8UYQhX3IPENGknMK6lG9TnTxqhwAomOeNYiSmeVJYvsRFP2Ll0sw7aub8m8E0dIipkkuLvXk8Akton7GgXT1iSAJjN5swyWI/nOaphbzKiHYWJkKCIBpUg8hx9MexGORs3FawbOqvVhhPq2JQgi4Q0Ofod+3IvIji6xk4z/k70mDaO5FFqOR98u/yaGiaZRD5vk0jUpkh+tsE5n43xFEcy+yMStCFnn/7x95jkDKGGlOI7+X6+gqQUC78HJg2YDfISCLnSxy/xxpBpWcl1WCFDS1So7F6j4QgV6dMpsEMZIcKG3nbbr6OUVpqHYJUmE/Unp8Vn9lBHqLpogSxEhSWcI6aK50hG1NiCCC2Ka95pScv61Sl5eOQAYiiO+Y8iHiEeO1NusgcNjJt/bwKIK4jfvXcRw/aXfE6usLgV7yNtMECbxbQpLwHfK+ZthGk4OAWtqdnE5ofJtEEEcSuWQlaemNJBoz0VEdPXmykgni59OlDfpiROlIwjOHUuu2X2Y3oc+zCRIQRfYmy2hMqBNWqCsEutmgy6yoEcQ0SldCnjqYbvYeHgB1ggREEW3iH6/3j9mnAm/ftY9AV5qjOEGW8+ni/D/IXmUcx5AwtslvX/i3euijeb/1muX/f6yaDDCac0fRAAAAAElFTkSuQmCC;" vertex="1" parent="6o1rjcuHU60eiY54TzUB-44">
          <mxGeometry x="185.5" y="430" width="40" height="40" as="geometry" />
        </mxCell>
        <mxCell id="6o1rjcuHU60eiY54TzUB-75" value="" style="shape=image;verticalLabelPosition=bottom;labelBackgroundColor=default;verticalAlign=top;aspect=fixed;imageAspect=0;image=data:image/png,iVBORw0KGgoAAAANSUhEUgAAAMgAAADICAYAAACtWK6eAAAAAXNSR0IArs4c6QAADllJREFUeF7tnY1x3DYQhclKElUSuwOyAtuVWKpETgVkB7YriTpBvGdchrrcEfsWIPH3biaTGQsEsW/3I/6W4DjwRwWowEMFRmpDBajAYwUICKODCuwocAgg0zT9SdWpwNkKrOv6lvqe0YB4GD6N4/hhGAb5jz8qkFMBgeTNOfe3/H9d1x8xjTED4sH4Oo7j55gG8FoqcKQCzrlvwzD8bQXFBMg0TQLG85GGsW4qkFIB59zzuq4vaJ0QINJrjOP4yqEUKjPLF6KADL0+InMVCJB5nr8TjkJczWZYFXhbluVJe7EaEMKhlZTlSldA5iXrun7RtFMFCOccGilZpiYFtHMSFSDzPLuajGdbqYBCAdVQKwjINE2vXMpVyM0i1SmgGWoFAZnn+Z9hGLgzXp372WCFAsFeZBeQaZo++2Vdxb1YhArUp4Bf9n242x4ChBuC9fmcLQYUCE3WQ4Bw/gGIzaL1KRCah+wCkmjvQ3YvJR9Gfj8lgaw+GdniwhSQpNi/fIJs7Pz4x7IsHx/ZdzQguzcvTHQ2pzIFNpnkMXmBeQBxzn1Z1/Xac1QmPZtbkwKRG9lZAGHPUVOEVd7WyCTa8wH59bLKE5IxWbl/2PwCFPCQyJ4d+jsdEPYeqItYPokCxkWlcwEJLZslUYKVUIE7CtQCiOnNLXqcCsQqYJysn96DEJBYT/N6kwIExCQbL+pFAQLSi6dpp0kBAmKSjRf1okA3gHhDtwfRST6XpCS/oPsrdw62u+SC+dU2+BiYzXlg0j7JA7oeVPbDcqxML8F7hp3NAzJN0wf//smjBLRL4qM2EBXvs0DHwCgcANV3RtD0dA+Ff+7JUccqFrATKkEoeV67R0p62OSYotBPFdRIfcixMqHG8e96BZoGBNzkCb4qCdYX3P1HXj3mZqk+qFOWbBYQ4On8n557r0oqhlb/80vi+oIApwwM1vVbgZYBgd9933tV0iJUABD4zcrQu84M6vQKWPz+66TQ8ucgFsP2hjGWo4r2gAOHaxfP832Y9ACEarTEUS2AyOqVZkK9HWI9TGmxCLUX0AQkFJpl/N3i91oAkVPjoVz+vYA2zmkevsNiEZ7vxJwPjcVPNQGCfFZhdxLsl4ylR9K+0L87DkXr4yrW+XA0PUn3xql7Ec0EGNhXkflC8A1IZGVsWZbgiZV5Qqjtuzbbg1zdptxJD24SbuoLHXyn2nQ8qr62w/V863IAAp/LGzqpLiTbJndKvn14HSJBKSbbexxR352vbJnbF9KDf9cr0AUgt8GNJifuySmwlFyfPhRY8p4C3QHCMKACiAIEBFGLZbtTgIB053IajChAQBC1WLY7BQhIdy6nwYgCBARRi2W7U4CAdOdyGowoUAUgkvzlnONHchDPsmwSBYwf1Il6HwTeSfenfGiTBJMIw0qoQIQCBCRCPF7avgIEpH0f08IIBQhIhHi8tH0FCEj7PqaFEQoQkAjxeGn7ChCQ9n1MCyMUICAR4vHS9hUgIO37mBZGKEBAIsTjpe0rQEDa9zEtjFCAgESIx0vbV+B0QJis2H5QFWnhOI6SAyhf/kJ+5wLCQ5sR37BsSgWqSHcnICldzroQBQgIohbLdqcAAenO5TQYUYCAIGqxbHcKEJDuXE6DEQUICKIWy3anAAHpzuU0GFGAgCBqsWx3ChCQ7lxOgxEFCAiiFst2pwAB6c7lNBhRgIAgarFsdwoQkO5cToMRBQgIohbLdqcAAenO5TQYUYCAIGqxbHcKEJDuXE6DEQUICKIWy3anAAHpzuWPDZ6mSd69/msYBnkP+6d8uGhd164/XERACMggYIzj+OrB2Cry5px7Wdf1W68yEZBePe/tnqbpz3Ec5atfj34CycdeexICQkBex3H8vCeDc+55XdeXHqUiID16fWPzPM9OIcHbsixPinLNFSEgzblUb9A0TZ/93CN0EQEJKfT+7zw4DtOrzNLzPH/XnBronPu2rusX1AqZ39Q+d2EPgnodLC9BMgzDVz/OvyyZ+oDLPqZXDq+kvV+0K1ne3k/jOD5vpJKJvkCW3WbQfbLCJ77b2qKpgj2IRqXAECbrsAUYXg3Lsowae6XMXq9U42SfgGg9D5bTBKBfPv0BVp2k+BHDK6XNVa2IEZAk4fa+Ek2g+KFWlmBR7H38ZxAC8TRNwSXjnHZbXE1ALKrtXKOFI2egaANZ2phqeHUrWS3DLQKSEBAEjpyAzPMsO+eyeLD7Q1ev0GCqARLUJi8oJ+m3kYXC4QFRrw6Fgln7d6SdzrknZJnW53TJ0rH6VzokBETtyscFkaDb1oIMXxI081IFMLzafQrea4+f20jSI/RFppIhISCRkWeFA5n8Rjbx3eVH7H1sb+AhkV4kOITbXlcqJAQkIvpqgwNpLzq8ahUSAmIEBAm2myelpI43s/fxSL5WehICYgCkRjjEzKOHV3cWLuRdk6qHWwQEBKRWOJB2p1w8qL0nISAAIEiQlTKsurbjqL0PjXw1Q0JANB7+vTyqfXdiW6NkscpeR5Y5x7UhyP7EUatrtUJCQBSA1AwHuPcBpZYopHtXpMZ9EgIS8HLtcPjJ+SGpJSggHlaZuFezmUhAdrzcAhyIDTF7HwgsNfUkBOSBZ5HA2lRRxJzjZtNOlYIuh8Qty/IRCfSYsrVAQkDueDkCjuLOjzp77wOB5sHrucEqzkxLISA37rDCUeKxOIgtZw2v7m0mDsNw+w57MZAQkI0rkIDaDqtKhMNPzg89tSQYxcoCJfckBMQ7sTU4PCCaQ+GgU0uUMQ8XKxUSAhKxCVhqz+GXU9UbmylTS2Ay3vfgkiJf1HCre0CMPcepKz6WoMuZWmJp783KG3wW1VET964BaRWOElJLWoGkW0BahcMPr7R7H4emlrQASZeAIE/YjZOLH1Zd21rz8OrOMrBluJXsMIxeAVE/Yb3DqoED6Rlz7X2gPYshSJMd62q4t5hX97E/2mM3r448KgUcDRRN+SNPLdHc/4gyhlR5AhLjCMNTobgcq0f2l5xaYvGZJWcLPfBur12GWKm/BzE8kcTo4o/wb214hZwhvA3ylD1+l4D4lZ7QxyvvPViKhkQ7dEz5hLX0CpprjAspkhWQ9NSYbgFpEZJWhlelwOFjBF5Fq36SfrNra+lJ5EmV5dMFj56+yJOulNSSe7aUBAcB8R6KGOsWA0kLex+lwUFANo+wmiEBJ+dJx+ia+YSmDGLDURPyBz1a30OsFoZbwN5HkaklyPDwTDjYg9x5ZET0JKZPJWuerqEywOQ8Wxt35k5oVsOlqtSrVSnmdps66t5JDwVcTZAgQ5PSUku0y9K3/joLDvYgO6RYIZENxTNfpAKGV0Xlk9UABwEJdCU1QAIMr5JluIZ64NDfa4GDgIQ8+ft1XNM+iU9NOfQYoNqGV5a8qquLzhxW3SzccBUrxIkxd0uqldSUwyDRPolLSC2pEQ72ICEy/r9PAn8M5ihIkJ7NnzD/DTA3aVGkrTkn5NwHiXR7ST0JMDnPuvdh3R0/cyl3LyyMezRtL/MGBDN9Vix1T1JDakntcHCIZexRInuS6A/qgJPzLKklLcBBQIyAeOFiepIoSEofXrUCBwGJACQnJMDex+mpJS3BQUAiAYmExLSzDQ6vntZ1fUtgproKpHfbVpprnyNkGCfpIYUUfzfOSUwpKdq9j9BbbQqzTEW0iwc1wMEexBQC9y+yQGJJHgSGV1lSS7Ttu6pYas9xbR97kIyQoK++lj68EikRQEqHgz1IQjg2Txzt6hY8B9EOX3KmlmiHgDXAQUAOAEQ7cUcDBFkdyplaounlUNsPcpOq2hxDLNVXj24mcVnG0yoFHxTaSc4zna2FrA6hQ7cYO2+vDXwpqpoTKnPOQboAZCPwh2EY5MtJfwzD8HNd1x+WgKxheLW1y4Py1f/bZal5XdcXi+05r6mlB8mSLpHTMTfBpv6cWk3Dl1L03WsHAanAS7UMryqQEm4iAYElO/8C7dJpztWr81U5544E5Bydo+4CAHJ6akmUYRVcTEAqcJJybwHeV6nA9OxNJCDZXRBugOaV1Zx7H2EL6i1BQCrxXQAS9h4H+ZGAHCTsEdVuNuEueyvOOdlTkb2VbAcyHGFnSXVaAAktlox7BmonnNs6uLZfUsj01RYkxeeqDAHpK0a6tlYz/7sVKDQfZA/SdUi1Zzw4zArOBwlIezHStUXIqZCal+AISNfh1KbxgSxlMVqdqUxA2owRWvX7MHNZQfw0jqNkaF9XEt+QTGUCwlCiAjsKEBCGBxUgIIwBKmBTgD2ITTde1YkCBKQTR9NMmwIExKYbr+pEAQLSiaNppk0BAmLTjVd1osARgDwjGzGd6EwzK1UgOSC5TiqvVH82u3AFjgBk4DshhXudzVMrcAggkgy2LMuTuhUsSAUKVeAoQMRcyZiUUxZP/WpSoTqzWZUqcCQgV0jkHWzzObeV6spmN6JACJB//GHOKcyVnoS9SQolG6nDOXeNh2IPswgB8v3XqpTk1PNHBQ5VQA5PGIbhpbQh+S4g4Pu9hwrIyrtQoLjFnRAgH8ZxlF6EPypwigKhY3hOacTmJiFAtN/wO7vdvF/DCpS0j7YLiPhA8x27hn1F0zIo4JwrJl1JA4j0Iq+crGeIlE5vWdIwKwiI70U4F+k0WHOYXR0gHGrlCJN+7xk6DvRMZVQ9yLVBXPY90zX93ktz4uFZ6kCAsCc5yy393qek3kO8AAPiIZGT6uTEuud+XUnLD1AgeJj0AffcrdIEyGbIJaB8Hcfx8pGYsxvP+zWjgPqs3LMtjgJk21h/YPDlDNRhGP442xDer1oFis70TgZIte5hw6nAjgIEhOFBBQgIY4AK2BRgD2LTjVd1ogAB6cTRNNOmAAGx6carOlGAgHTiaJppU4CA2HTjVZ0oQEA6cTTNtClAQGy68apOFPgXZfIEqhWD9oUAAAAASUVORK5CYII=;" vertex="1" parent="6o1rjcuHU60eiY54TzUB-44">
          <mxGeometry x="175" y="237" width="40" height="40" as="geometry" />
        </mxCell>
        <mxCell id="6o1rjcuHU60eiY54TzUB-18" value="" style="shape=flexArrow;endArrow=classic;html=1;rounded=0;fontFamily=Helvetica;fontSize=12;fontColor=#333333;exitX=1;exitY=0.5;exitDx=0;exitDy=0;entryX=0;entryY=0.5;entryDx=0;entryDy=0;" edge="1" parent="1" source="6o1rjcuHU60eiY54TzUB-12" target="6o1rjcuHU60eiY54TzUB-15">
          <mxGeometry width="50" height="50" relative="1" as="geometry">
            <mxPoint x="450" y="770" as="sourcePoint" />
            <mxPoint x="500" y="720" as="targetPoint" />
          </mxGeometry>
        </mxCell>
        <mxCell id="6o1rjcuHU60eiY54TzUB-27" value="" style="shape=flexArrow;endArrow=classic;html=1;rounded=0;fontFamily=Helvetica;fontSize=12;fontColor=#333333;exitX=1;exitY=0.5;exitDx=0;exitDy=0;entryX=0;entryY=0.5;entryDx=0;entryDy=0;" edge="1" parent="1" source="6o1rjcuHU60eiY54TzUB-23" target="6o1rjcuHU60eiY54TzUB-25">
          <mxGeometry width="50" height="50" relative="1" as="geometry">
            <mxPoint x="690" y="320" as="sourcePoint" />
            <mxPoint x="740" y="270" as="targetPoint" />
          </mxGeometry>
        </mxCell>
        <mxCell id="6o1rjcuHU60eiY54TzUB-55" value="&lt;font data-font-src=&quot;https://fonts.googleapis.com/css?family=ZCOOL&quot; face=&quot;ZCOOL&quot;&gt;采集与存储&lt;/font&gt;" style="text;html=1;align=center;verticalAlign=middle;whiteSpace=wrap;rounded=0;fontFamily=ZCOOL;fontSize=18;fontColor=#333333;fontSource=https%3A%2F%2Ffonts.googleapis.com%2Fcss%3Ffamily%3DZCOOL;" vertex="1" parent="1">
          <mxGeometry x="220" y="670" width="170" height="60" as="geometry" />
        </mxCell>
        <mxCell id="6o1rjcuHU60eiY54TzUB-56" value="" style="shape=curlyBracket;whiteSpace=wrap;html=1;rounded=1;labelPosition=left;verticalLabelPosition=middle;align=right;verticalAlign=middle;strokeColor=#666666;strokeWidth=2;fontFamily=Helvetica;fontSize=12;fontColor=#333333;fillColor=#f5f5f5;rotation=-90;" vertex="1" parent="1">
          <mxGeometry x="295" y="547.5" width="20" height="245" as="geometry" />
        </mxCell>
        <mxCell id="6o1rjcuHU60eiY54TzUB-59" value="" style="shape=curlyBracket;whiteSpace=wrap;html=1;rounded=1;labelPosition=left;verticalLabelPosition=middle;align=right;verticalAlign=middle;strokeColor=#666666;strokeWidth=2;fontFamily=Helvetica;fontSize=12;fontColor=#333333;fillColor=#f5f5f5;rotation=-90;" vertex="1" parent="1">
          <mxGeometry x="555" y="547.5" width="20" height="245" as="geometry" />
        </mxCell>
        <mxCell id="6o1rjcuHU60eiY54TzUB-60" value="" style="shape=curlyBracket;whiteSpace=wrap;html=1;rounded=1;labelPosition=left;verticalLabelPosition=middle;align=right;verticalAlign=middle;strokeColor=#666666;strokeWidth=2;fontFamily=Helvetica;fontSize=12;fontColor=#333333;fillColor=#f5f5f5;rotation=-90;" vertex="1" parent="1">
          <mxGeometry x="853.75" y="503.75" width="20" height="332.5" as="geometry" />
        </mxCell>
        <mxCell id="6o1rjcuHU60eiY54TzUB-61" value="&lt;font data-font-src=&quot;https://fonts.googleapis.com/css?family=ZCOOL&quot; face=&quot;ZCOOL&quot;&gt;同步与分发&lt;/font&gt;" style="text;html=1;align=center;verticalAlign=middle;whiteSpace=wrap;rounded=0;fontFamily=ZCOOL;fontSize=18;fontColor=#333333;fontSource=https%3A%2F%2Ffonts.googleapis.com%2Fcss%3Ffamily%3DZCOOL;" vertex="1" parent="1">
          <mxGeometry x="480" y="670" width="170" height="60" as="geometry" />
        </mxCell>
        <mxCell id="6o1rjcuHU60eiY54TzUB-63" value="&lt;font data-font-src=&quot;https://fonts.googleapis.com/css?family=ZCOOL&quot; face=&quot;ZCOOL&quot;&gt;数据分析处理&lt;/font&gt;" style="text;html=1;align=center;verticalAlign=middle;whiteSpace=wrap;rounded=0;fontFamily=ZCOOL;fontSize=18;fontColor=#333333;fontSource=https%3A%2F%2Ffonts.googleapis.com%2Fcss%3Ffamily%3DZCOOL;" vertex="1" parent="1">
          <mxGeometry x="778.75" y="670" width="170" height="60" as="geometry" />
        </mxCell>
        <mxCell id="6o1rjcuHU60eiY54TzUB-65" value="" style="group" vertex="1" connectable="0" parent="1">
          <mxGeometry x="880" y="370" width="130" height="260" as="geometry" />
        </mxCell>
        <mxCell id="6o1rjcuHU60eiY54TzUB-31" value="" style="rounded=0;whiteSpace=wrap;html=1;strokeColor=#9673a6;strokeWidth=1;align=center;verticalAlign=middle;fontFamily=Helvetica;fontSize=12;fillColor=#e1d5e7;dashed=1;dashPattern=8 8;" vertex="1" parent="6o1rjcuHU60eiY54TzUB-65">
          <mxGeometry width="130" height="260" as="geometry" />
        </mxCell>
        <mxCell id="6o1rjcuHU60eiY54TzUB-45" value="清洗异常文字" style="rounded=1;whiteSpace=wrap;html=1;strokeColor=#666666;strokeWidth=2;align=center;verticalAlign=middle;fontFamily=Helvetica;fontSize=12;fontColor=#333333;fillColor=#f5f5f5;" vertex="1" parent="6o1rjcuHU60eiY54TzUB-65">
          <mxGeometry x="20" y="20.80000000000001" width="90" height="41.6" as="geometry" />
        </mxCell>
        <mxCell id="6o1rjcuHU60eiY54TzUB-46" value="jieba/ Deepseek" style="rounded=1;whiteSpace=wrap;html=1;strokeColor=#b85450;strokeWidth=2;align=center;verticalAlign=middle;fontFamily=Helvetica;fontSize=12;fillColor=#f8cecc;" vertex="1" parent="6o1rjcuHU60eiY54TzUB-65">
          <mxGeometry x="20" y="83.19999999999999" width="90" height="41.6" as="geometry" />
        </mxCell>
        <mxCell id="6o1rjcuHU60eiY54TzUB-48" value="生成词云/&lt;div&gt;热点分析&lt;/div&gt;" style="rounded=1;whiteSpace=wrap;html=1;strokeColor=#666666;strokeWidth=2;align=center;verticalAlign=middle;fontFamily=Helvetica;fontSize=12;fontColor=#333333;fillColor=#f5f5f5;" vertex="1" parent="6o1rjcuHU60eiY54TzUB-65">
          <mxGeometry x="20" y="145.60000000000002" width="90" height="41.6" as="geometry" />
        </mxCell>
        <mxCell id="6o1rjcuHU60eiY54TzUB-50" value="结构化为JSON" style="rounded=1;whiteSpace=wrap;html=1;strokeColor=#666666;strokeWidth=2;align=center;verticalAlign=middle;fontFamily=Helvetica;fontSize=12;fontColor=#333333;fillColor=#f5f5f5;" vertex="1" parent="6o1rjcuHU60eiY54TzUB-65">
          <mxGeometry x="20" y="208" width="90" height="41.6" as="geometry" />
        </mxCell>
        <mxCell id="6o1rjcuHU60eiY54TzUB-47" value="" style="edgeStyle=orthogonalEdgeStyle;rounded=0;orthogonalLoop=1;jettySize=auto;html=1;fontFamily=Helvetica;fontSize=12;fontColor=#333333;" edge="1" parent="6o1rjcuHU60eiY54TzUB-65" source="6o1rjcuHU60eiY54TzUB-45" target="6o1rjcuHU60eiY54TzUB-46">
          <mxGeometry relative="1" as="geometry" />
        </mxCell>
        <mxCell id="6o1rjcuHU60eiY54TzUB-49" value="" style="edgeStyle=orthogonalEdgeStyle;rounded=0;orthogonalLoop=1;jettySize=auto;html=1;fontFamily=Helvetica;fontSize=12;fontColor=#333333;" edge="1" parent="6o1rjcuHU60eiY54TzUB-65" source="6o1rjcuHU60eiY54TzUB-46" target="6o1rjcuHU60eiY54TzUB-48">
          <mxGeometry relative="1" as="geometry" />
        </mxCell>
        <mxCell id="6o1rjcuHU60eiY54TzUB-51" value="" style="edgeStyle=orthogonalEdgeStyle;rounded=0;orthogonalLoop=1;jettySize=auto;html=1;fontFamily=Helvetica;fontSize=12;fontColor=#333333;" edge="1" parent="6o1rjcuHU60eiY54TzUB-65" source="6o1rjcuHU60eiY54TzUB-48" target="6o1rjcuHU60eiY54TzUB-50">
          <mxGeometry relative="1" as="geometry" />
        </mxCell>
        <mxCell id="6o1rjcuHU60eiY54TzUB-66" value="" style="shape=image;verticalLabelPosition=bottom;labelBackgroundColor=default;verticalAlign=top;aspect=fixed;imageAspect=0;image=data:image/png,iVBORw0KGgoAAAANSUhEUgAAAOEAAAClCAYAAACqepoAAAAAAXNSR0IArs4c6QAAAARnQU1BAACxjwv8YQUAAAAJcEhZcwAADsMAAA7DAcdvqGQAAA59SURBVHhe7Z0xr9zGFYW5T38giIG4lQHLldSrCSxDTeAAqeMigNIHcHoXkgK4j4OUAWwhAeQ6gFXKVhe3sSophd06iP/CZg937hMf35I7JOfO3DtzPkBYci2vSM6cOffeGZK7/X7fEZKDp8/2j8Jm99GHu8vt1qEISRYgwKfPuodht7vzbvfNp3/cfRB2m+YifBKixnevu3tDAYLv/oPv3jhjy1CERJ0vv9pfESC5CsNRJ8BN8Pny9b7/FF6+6t6//V73Atu3b+2+weedW13/aYXf/GG6k/3zr7td2GwWitAgEJyIDSJD6Nb/hwVYybnGueCYjz7sHrdepKEIjSD50VyHXUNpp5lzQUARUoRF0RLekE8/3n1QKjyFo3/y2f7rsDtJ6yEpRZiZHMIDcBjkiCXzw0/+vP86JpRu3Q0pwgzkEp5gpVOfC0WHtOyGzYhQqotgXGE8hVQawRo3keJKLuEBSxPgsaGo0LIbViXCFFXFc6Cj4xPTAuMpgdyON8TaChRci6XXoWT+WhK3IhTBaYnNG9Y6cGw+OKZFIboSYUmnsYzFjrtWhKC10NS8CCm8eawuhF5SlDmF1fPawjBEH56fSRGWKGp4xWr4tlWEQi2uOJUjoypsSoR0veVYLO0vrYzGAOf47a93jz3mi1MCBBhkTIiQ4ltPKyIUvDnjnAABBpeitzKhseQgKUASA/oJQl0ZuC1zToBCMRHiADFaUnxkDeg3fQX2MJCHr0wRK0CQXYR9qHK4eBRfGjw4ghaYAsFAbk2ISwQIsopQ3I+T6yQlVoSI/n0MleMFiJVXWQozuEB4xAHFp4PFaYpUUxRLKFG0Qd/eMp2GtlMX4VJrJsuxOLFdQoQgRbV46KqyFnlMquWS6iKkAPNhrXRfSoRrrwP66vEzb39VFSEFmB9LQtyydnQrseG5hT4K51YpzFCAZcA1t1K2lyfAlWAqhBSO/bN8H0Uagc/kIqQAyyJle7RD+Ko5pvofBifpnxb6qAxUSUVIAdoB7VDSFYdPJijBeBDCvrXFIXKNkomQArSHuGIJIVqaMrHaN+UaJREhBWibUuGp5DwlkP5oVoCDa7O5OkoB+iH3fCL7xjTDCu4mJzwmurzIXujD04x5Yum80AurRYiGRJgTdokTcuaJ1pbSWQERyfDarBYhX3flm1x5IhYQhE0SwBMCwmbPKhGi8UqthiDpQCqhLURPd8HnYOyCYLEImQfWRR4h0g2FUyuJFldHSy3MJbpoV07Zb46custjkRPmyCFIGaRyGnaTQzecvgbRTshqaBtoOmLLbjh3XaOdkNXQNtB0xJbdcFwRHRIlQlZD20JLiKiUtihEnPPcnOnZcJRhaLtohaYthaUx1/CsEzIMbRctR8S6ybBZPXNhqDArQrggw9C20RAiQrMWwtLYx2zMipAuSICGEGvPD8/lgUMmRUgXJEMoxHhwTkuW602KkC5IxlCI51kqQHBShHRBMgWFOA1ywKUCBCenKHCRKUIyh8b0hdfpsK3X4rQTUoDkDBqOiEJGX1E8dOrwlXng4FsHo2tOyMl5sgStCX2s0rJ8y9ya3G+Ka07IggxZgoYjAst5YkoBgmtOyPu+yBq0HNFKfUIGhJTiE644IULRsEnIIsQRa+tDEB9uxD06c3oBgitOyKooSUHscq0YSkRmmq53iksRsiBDUpJCiDn6pAgOz0hNNXAshSIkamwtYGhFZluPKzWXOSGroiQ1mGLYUjnVECAKSJYECC6dMPWoIxOuUy+LxDu/w2YPc9G6WRqeakVm1lwQXIpwSwKcKq6WyhretJrqxfzEDhiYcZNrTB9pJRQFvQi3jDraJyXClHCZwvRPTJ/RqoqaFeHaUSdlKTqWoSgpSL/MuaJWKAq0FhVs4eQC7lhyCxDg38QfXEhMonpb8EuOYACF0OB444dKt1Yk7J1wrfWfeqR3STCC0iH9IoOpZvtZdMKqRCgwZCVTmBThv1/tV8ffVkU4pHV3RCFiWLWWAQq0eF0owoK0JsYlVcCWro3F6ugF5uTC9mKGo6p1pJjTQiFnaUeTa4P/L3xVLRbfo38xXrlSO7WLEee0dqTH/8dqc342TVFscdHS1CrGqWWCsdTuiji/sGmGTSKsgdo6XarnssAVaxOi1cG2eREK6HQoNNXgiv0KqAT5eo1CtMiNX/7q4YMff+puhv1F7PZdd//u7knYrYJwPruXjopOY9Cez7/tHhxc8dEh57/3/F8d2vidw2l1b7/VfR/+WhR3joUM19dDuH+3exLOxxQ3fvbuwy/C9mLe/nn3fW0iBGio27d2L/77v+7m2gHKCjh+/IGIRJiHr3dLOmMtQjw4++Olg1AONoWjNc8r1VygQN6IVVJLQlaGpnowJzwDOl+tZfulizQ8CxHtZ7EyCjaL0NOE/Vo8uyKOeW4AGd/BcA4IscYBqSSbReh5rnApnpwAQkG1t3fymQEEoWnYjCbmFdDW2Dp/qgnD0YVIeBp2zTIWSkoHQ2TgLSqwuFxNuNjaMGtGUu/04anxPPFU/pPSDTxFBcBqPgjohCuRPNGqEE/leqnXCUOIYdM0lgdLkESES5P7mrBasOmfVjcomqGNTk0pbe2g3sJSi9AJE2AxNIPgMAWBJWzH57jopA0ewlLrhaSLFHlCa7dDncJqZ8yxoMJ6WGo5HwRJnLCFO7Jj8OAKWlg9b+v5IEgWjrYwaR9Dq0K06oaW5weFi1TzJy1N2p/DkxBTRjEWz9ny/KBwkSpebnG+cI4WHdGiG1rPB0HS6ihD0qt4EWLKKSZL5+shHwS9CFMdLEPS60CI1jtDyijGkht6WeOa1AkZkp7G8soaoUY39BCKgl6EKStILa+emQNCDJsmwQBaU9t5CUVBUick81jPDyFErLAJu6uxsHjD0+1WSd7UO8bT4/FzA7exHrbDRdCJ14RzVs7PUx9UcUKGpNN4qJjKutMl7Yi/q7lGdQmeQlFw6YQpRzB0MotzRpZIGXloI84YdvuCB6ajpBpuzdn7ez2dFGWAiggBQ9J50InXvg2LTIMBw3oRbMxlOJp6eQ9D0nkwUlsPSz3iqSAjXDohSB0i0Q3PkzoCaR2Pfe5KYSZ1Qks3PA9z53R4K8gIV0SY+rYPjvBxMCxNg8dQFFwRocaoTDc8j4dpC+vABT1VRIeozBMOoRvGASF6Dacs4NUFwTURaozIdMM4PHekknh2QXBNhBp3ItMN4+C0xTq8D17XRKg1otAN42BYugzvLghO5oQ6ISndMBZvKz5KUkMIPyFCnbkrumE8DEvPU4MLghuPHk3qIvnrkfF7h5zzhcVXFlujpnfFa/G3P+3eCZuuOemEmnz51Z5haSRaEUkN1BQpTIpQqwPgXjWGpfEwLL0OwtCaBqi5cBSohEMMS+NhWHqdj3+3+31NfWc2HNUcbRiWxsOw9A2IDGooxgw554RAZRT+8afu5uFjF0Z6cp7m3RBhKFww7FbDlfsJp9B8FAPvOYwHuXTL863eHlsRS1R1VLM4wCJNPC2HpTWGoUKkCPUaHyM7hRhPi9XS2qqhY2JyQkEtJwm/y/wwgharpbVVQ8dE5YSC9mP6MMqzEhgHnpTdwhuSa80DhyxaMaMdCiE0tfp6NRwXwmZ8WjjGFu49rDkPHLLICUGOh9Zaq5ieqkoiT8EnxFCqo9RcLcX1beVukiU5oaCej7x81d27f3f3JOwWBa732T+6z8PuJZjnxJ/n33YPcLy/eGv3Q+68pdb8sCUBgkXhKEDOph2W9u9CSPB2oFzIuxv6PC2zINAe4sq10NpjPhaLEOQonnhc6C1izH3cNblGC4WYMWvCUUE/LD3+ftGpCwk5w24UOO4CIar7sBQR1iEN+SLsNsNqEebKR0oLESJ6+qxbfJFy54ve88OWp6e2OGHf8Gs66FLEWQoWa1Z37oGTqg8kXoXYsgDBJhEGsjQ6OnOpKmQ/CGw8x/43Mhw/hIh/B9crfGWa1gUIFs8TniL3fFWJ5D3l/GiO4/ewoqa1qYgpUjhh9jAoV3g3Itn5Sa6oGV7jt3OkCmuhAN+waoriFLnnq+C8OacCUodMcCm4q+a8Ihw3bJqjtbnAOZI4oYB8Z2k5fwvBmXI6YnK313R15J54lk/ONomhxbnAOZKKMBQcslbn8G/lKthAKBohnuY5lGiTcxyO6YfMqYRpkooQhIubtdFzTgMcUDk3OQeNp9CVaJM5NAcdjyQXISjV6DkaV/vctAYTa0KUQQeRReuCVBEhKNXoOVyxF7viefW/r9AxcT0s5oitC1JNhKDk6KvVkY/sxLHU0ApP8VsWhSjIebckRlURgpJC1HLFv/x9/zl+O+yqonH81oUIWnLHJCtmYrBwFzjmMbfeCV/qPDQmtzFHiSehY84yfGWaFO1nkWwiBBaECGRRwZIGlYUBpY9fY47N20OjahNjVhECK0IcIqK8/V73ov8Mod/L1/u+Yx7CofctdVKNRc8W2+UctYgxuwiBxwa3hkYH9Nou3u/EKCJCQCGmIbUYkSfiER1h1w2e32lSTITAa4NbJLUYveWJntejFhUh8Fah84AIst/e0DE9RSsUYQK8jbyegCjxicKTFJ2Ecccd31rlYYDE+Xm+N9GMCAHzRLIGFmYSwzzRLujscFJL7ljDM2rMiVBgeGqLcWeXXL7fLtRONQgQmBUhYHhanph8S/LIHKKE8I6f/sUnmBYhYPW0HFucZljgwcojrDoKu7MiHRaR+i8OIAT2WvmMwbwIBbpiXmoJ9TzgRoQCc0VdKL78uBMhYIiqAwVYBpciFCjGNFB8ZXEtQoH54jpQBEEBhAIsSxUiFCjGeOh+dqhKhALEaO1GXAtAeMdPis8SVYpQYM54hOKzTdUiHNKiIBly+qAZEQoixn67QkHS9fzRnAiHQJD49OyQUuGsfWlXzTQtwjEeXFJEh226XR1QhGeAMIcLkHOIc7yImS5XM133f1VWUjkWrAgjAAAAAElFTkSuQmCC;" vertex="1" parent="6o1rjcuHU60eiY54TzUB-65">
          <mxGeometry x="100" y="62.4" width="43.63" height="32" as="geometry" />
        </mxCell>
        <mxCell id="6o1rjcuHU60eiY54TzUB-68" value="" style="group" vertex="1" connectable="0" parent="1">
          <mxGeometry x="720" y="370" width="164.95" height="260" as="geometry" />
        </mxCell>
        <mxCell id="6o1rjcuHU60eiY54TzUB-30" value="" style="rounded=0;whiteSpace=wrap;html=1;strokeColor=#d6b656;strokeWidth=1;align=center;verticalAlign=middle;fontFamily=Helvetica;fontSize=12;fillColor=#fff2cc;dashed=1;dashPattern=12 12;" vertex="1" parent="6o1rjcuHU60eiY54TzUB-68">
          <mxGeometry width="140" height="260" as="geometry" />
        </mxCell>
        <mxCell id="6o1rjcuHU60eiY54TzUB-36" value="预处理&lt;div&gt;归一化 异常值&lt;/div&gt;" style="rounded=1;whiteSpace=wrap;html=1;strokeColor=#666666;strokeWidth=2;align=center;verticalAlign=middle;fontFamily=Helvetica;fontSize=12;fontColor=#333333;fillColor=#f5f5f5;" vertex="1" parent="6o1rjcuHU60eiY54TzUB-68">
          <mxGeometry x="21.538461538461547" y="20.80000000000001" width="96.92307692307692" height="41.6" as="geometry" />
        </mxCell>
        <mxCell id="6o1rjcuHU60eiY54TzUB-37" value="定制 计算公式" style="rounded=1;whiteSpace=wrap;html=1;strokeColor=#b85450;strokeWidth=2;align=center;verticalAlign=middle;fontFamily=Helvetica;fontSize=12;fillColor=#f8cecc;" vertex="1" parent="6o1rjcuHU60eiY54TzUB-68">
          <mxGeometry x="21.538461538461547" y="83.19999999999999" width="96.92307692307692" height="41.6" as="geometry" />
        </mxCell>
        <mxCell id="6o1rjcuHU60eiY54TzUB-39" value="计算结果" style="rounded=1;whiteSpace=wrap;html=1;strokeColor=#666666;strokeWidth=2;align=center;verticalAlign=middle;fontFamily=Helvetica;fontSize=12;fontColor=#333333;fillColor=#f5f5f5;" vertex="1" parent="6o1rjcuHU60eiY54TzUB-68">
          <mxGeometry x="21.538461538461547" y="145.60000000000002" width="96.92307692307692" height="41.6" as="geometry" />
        </mxCell>
        <mxCell id="6o1rjcuHU60eiY54TzUB-41" value="结构化为JSON" style="rounded=1;whiteSpace=wrap;html=1;strokeColor=#666666;strokeWidth=2;align=center;verticalAlign=middle;fontFamily=Helvetica;fontSize=12;fontColor=#333333;fillColor=#f5f5f5;" vertex="1" parent="6o1rjcuHU60eiY54TzUB-68">
          <mxGeometry x="21.538461538461547" y="208" width="96.92307692307692" height="41.6" as="geometry" />
        </mxCell>
        <mxCell id="6o1rjcuHU60eiY54TzUB-38" value="" style="edgeStyle=orthogonalEdgeStyle;rounded=0;orthogonalLoop=1;jettySize=auto;html=1;fontFamily=Helvetica;fontSize=12;fontColor=#333333;" edge="1" parent="6o1rjcuHU60eiY54TzUB-68" source="6o1rjcuHU60eiY54TzUB-36" target="6o1rjcuHU60eiY54TzUB-37">
          <mxGeometry relative="1" as="geometry" />
        </mxCell>
        <mxCell id="6o1rjcuHU60eiY54TzUB-40" value="" style="edgeStyle=orthogonalEdgeStyle;rounded=0;orthogonalLoop=1;jettySize=auto;html=1;fontFamily=Helvetica;fontSize=12;fontColor=#333333;" edge="1" parent="6o1rjcuHU60eiY54TzUB-68" source="6o1rjcuHU60eiY54TzUB-37" target="6o1rjcuHU60eiY54TzUB-39">
          <mxGeometry relative="1" as="geometry" />
        </mxCell>
        <mxCell id="6o1rjcuHU60eiY54TzUB-42" value="" style="edgeStyle=orthogonalEdgeStyle;rounded=0;orthogonalLoop=1;jettySize=auto;html=1;fontFamily=Helvetica;fontSize=12;fontColor=#333333;" edge="1" parent="6o1rjcuHU60eiY54TzUB-68" source="6o1rjcuHU60eiY54TzUB-39" target="6o1rjcuHU60eiY54TzUB-41">
          <mxGeometry relative="1" as="geometry" />
        </mxCell>
        <mxCell id="6o1rjcuHU60eiY54TzUB-69" value="" style="shape=image;verticalLabelPosition=bottom;labelBackgroundColor=default;verticalAlign=top;aspect=fixed;imageAspect=0;image=data:image/png,iVBORw0KGgoAAAANSUhEUgAAAOkAAADICAYAAAANx8ZwAAAAAXNSR0IArs4c6QAAD5dJREFUeF7tneF1nDwThVEncSWf0wFbQeJKHFfipALUQfxWEnfCl3GED16zuwjNlUbS3XPyIwkM0sw8CF0GyQ0bv3Ecvzvnvg3D8CX82TqM/1avB16HYXid5/llGIZf3nv5exc/ye1hGP7nnLsPuW3eF24dmXEc751zv7uIFjv57oF5nn+0Dus4jl+cc8/DMAicF3/zPD94739aSo93SMPoKZ3gr08PyMj6tcVRNXbwkZuW9/7JShq8QUpArYSjbDusJaeGN8II+ifWliVfvEF6Op3m2E7w+DY9YCk5NTw8juOzc07modG/eZ7vLDxZuHEcH51zMifhjx4QD7xM0/S1BVccHUWXvlu5YbnT6SRC0dXJdAsBYx/2e8DKCLK/xdtHKgxAJm5YAikfdVOzobHzLSqcR1ysAOkwTdOHNyBH2pF6jkAqk2p5H8ofPfDmgaDyyjvUqn8p89Gl44S06hRot/ENPe4eFo1MQapxt2k3XfvsmYXRQ8PzGrltwRei7koJIIsYNLKiARtWFE0NVzYDqTiD81KNlGjDRiuPuhKNpiAN75PkVQwFpDZYO9SLVlTdpfNNQRruOixqOJTabZzUGqDNjaSrOw9BbYO5mF68zPP85L2v/pXLeaebG0mXDoLmp8s3e918txhDSaFjJRZNf0vaLKQoIakl1bAQVLxspAeahhQlJBHUyCzj4UkeaBrSlZAkn/ioKr4tSfxJGcST4R5oHlKg4tvsCgDwrOMFojzQBaQENSoneLAxD3QDKYUkY5nH5uz2QFeQUkjanRc80JAHuoI0PPbKkojqpYMtVroYytOum9IdpMD5qXxkbGLBp64zusHOdwkpEFQqvg1CUrpL3UKKEpJklbrw6MvSwdLZ3cj1u4YUBSorkhqhw0g3uoeUiq+RTGQzLnqge0hX81OWDhIUkx4gpCEsGmubbkSYQpLJtK+rUYR0FS+CWlfy9tJaQnoWacTH4hSS2sNp2cQ3R89WGwUfvtw8z7n2KpW3Gv/J5s7nm0SpLaFPIelwHjR/4t4NfJt3xL4OyqtIWTHj/eagBmkQklg6uC8Q3RwVu4FvN4650dH1U6QqpCvFV30rRZYO1pe+qVsP1tdj3RYvoKpDCgSViq9uDsCtIXQKeKONXUAGJwik0k9QgFg6aCyJLjWH25foBEqEKxikKFCp+OoEH20F9FoO3WyT9qGQUvE1GfMsjQI9SWVpu7WLQCFdzU9ZOmgt8uD2cAd5PQfDIaWQpBesmixxJNWLVhZICapewGqxdDqdZKmd+1raa7md2SClkGQ5DfTbRuFIzaevWSGlkKQWuCoM8ZE3PUzyNiMrpOGxl6WD6bGrwgJH0+QwvUzT9DU7pMD5KVcdTM4JfQME9bBPX6dpupOzi0AKBJWlg4dzAndiAFX9NRyuxWUtS5WR9/5haUUxSFFCElcdLJtg164eYBXFV3bqU92tz26vd7dMBhjZbV0+U/uw63pRSFGgsnRwd2I0fSBXZlAKLxVfJUfSzCcPEFLFpEDNWfgNqmKQKjRFSJWDBlIBKSQpx6kmc4QUEC2CCnBqxyYJKSj4iCoVCkmgYBk3S0hBAaKQBHJsh2YJKTDoQFAf1kslArtA0wY8QEjBQQDNT1k6CI6bJfOENEM0QKBS8c0QOwuXIKSZooAQklg6mCl4hS9DSDMGAAEqFd+MASx0KUKa0fFAIemH9/4pY1d4qYweIKQZnS2XYulgZoc3cDlCWiCIICGJim+BWOa4JCHN4eWNa4BApeJbKJ7IyxJSpHdv2EYJSeGDW9nMlb8GPEBICwaRQlJB51d0aUJaOFgEtXAAKrg8ITUQJND8lEKSgdhqNIGQanhRwQYIVApJCrEpbYKQlo7A6vqgfUcIqqEYH2kKIT3iNeA5KMWXFUnAoIFNE1Kwg2PNU0iK9Vj7xxNSgzFm6aDBoBRsEiEt6PxrlwYJSVR8jcb7Ri48O+dke4vDv2maii8gX7wBh7135UQQqBSSEMEC2hzH8btz7jnhEu+bJiXYSD61SUjFKyghiaWDyTmXzcA4jvfOOdlx/NDPyjfHzUJKIelQXjZ3UsrN2soOCM1CKtlGUJtjLrpDCY+8bxv4Rl8QcELTkAZQH51zP7R9Z+Uuq92vFu0d0ChMzEWXWDQPKRBUCkkVER3xes7MCNoVpEFIEgFBNrDV/BFUTW+CbQUh6fHCJsYvf5+OZAPfn+BmRJvvYiRdvJIiIlzyrBUFMDrynZ8gwK5c8Oq9N/uxf1eQUkjqnMxKu98VpKv5qVShfNGMGYUkTW/S1toD3UEKFJJYOki2IB7oElIgqBSSIGnat9FuIQ2K7x/AY6+8kxWV0KwQ0XfK19f7riGlkFRfwvbY4q4hDY+9X0IRtraQxH1meiQK0OfuIQXOTykkARK2R5OENET9QH3nnnyhkLTHSzzmqgcI6co9XHWQtFj0ACE9iwpLBy2mad9tIqRn8Qcqvnd8LdM3bEd7T0g3PBfxWVOM3zk/jfEWj333ACG9kAwIIYn1vSTviAcI6RWvaYM6z/ODxe8VjyQOz8nnAUJ6w9eaQtI8zz+99w/5wssrteABQnobUrUVHfiBeAvI5O8DIb3ic+33poQ0f4K3cEVCSuGohTxuug+EdPsVTNLK5xcyxtQykU1ndWOdI6TbxQzynanqb57nr977F1WjNNaFBwjpKsyh2kg2+FFd+pOqbhcswTpJSFeu1RaKgmlziy3DsomGIR4gpMGt2oULwSznoZC07csoIf23sVPqPpabWcN5aF8woXrbPaSpe1heCgwBRaVsf3a7hjQIRQgll+sb9ccSrMddQ0qhCJZXNKzogW4hBQFKoUgxOWnqnwe6hBSl5IZ5KBfFJl2qHugOUgpFqvlDYxk80BWkFIoyZBQvoe6BbiBlyZ967tBgJg90AylIKGLJX6ZE7fkyXUCKEoqmabrrOXnY9zweaB5SlvzlSSReBeeBpiGlkotLHE3LciMdhmF5dfXa6iLiko9hP9yovjYLKZVcTYz0bYUnnMcLmzi/hOVPm3jnfG2xdfnW+G+9wtO1G1OzkFIo0gdLw2KMyl77wm0xT3LXPshoElIQoCz5S6Q0BtDlUgLqMAy/ansEjgF01dfNJXaagxSl5LLkL5HQf9/tPjvnZP4Z9asN1COArkD9tLFXU5CmOOda1vDb0CimNg9O1QhqATU1B7ce8ZuBNDUJLqVh7fOidLx0LGg84VgHNRXQS6NpE5AemevsST2u8rfHS/uO0dpTxyqoWoCKN8+f3JqAFCQUseRvH3+7jjqdTvOuA3ccZA1UTUADpB9236seUo3HqI28oJK7A5aYQ7RGUmuqrzagzY2kLPmLwaTssdqQhmQu+noGAWhTkOZyUNnUbufqR1+/3PJAqUdfVP5JeeT5hxtVPu5Syb2Vuvb+H5jUIrRkHVHRffHeP60jWCWkFIrsQbinRSD94O3SuUBFAro1ikrfqoMUBCiFoj2UKRyDmJvmEpPAgH569bL0qypIQXfiV5b8KdC300SYqvy+8PXLTiuXD0ONqKUArWokRTmJJX/JXEQbqA1UVO6tngCu7l1bxUhKoSiaA/Mn1AJqaUCrGElRwWTJX3mOUbHVmqNaALQKSEFCEUv+yjP61gKroFoB1DykKKGIq/wZITQ0wxqolgA1DSlL/myBhG6NFVCtAWoWUpSjqOSiUUuzXxpUVN7tVXEvec+cukslNy3Raz+7FKhWATU5klIoqh2z9PbnBtUyoOYgBQHKkr90brJbyAWqVD4556QCCvLTmGKZedxFKbks+YPkXhajGUD9eWT1wr2d1wDUzEiKetzQctLeoPA4fQ+gQdVv8T+LmrlXfCSlUIRKk3bs1gaqJqDFR1KU81ny1w6gS09QuaLtKW1Ai0MKEopY8qedeUbsWQcVAWhRSFFCEUv+jBAFaoZVUFGAFoOUJX+gDO7ErDVQkYAWgZRKbickgbtpBVQ0oNkhpZILztzOzJcGNQeg2SGlUNQZRRm6WwrUXIBmhRQEKEv+MoBg/RK5Qc0JaDZIUUouS/6s45OvfblAzQ1oFkgpFOVL1N6vhHprsPhVimT+rlX95L1/zelraFkghaKcoez7WqjB4NyrqHV9r0UPBinq8YMlf33DuNX7XICuRtSse8/AIAUJRSz5I6MfPJAb0BKgQiBFCUUs+SOhaw+UAjQ3qOqQoibvJVQ1ImHXA6UBzQmqKqQoxxFQu7CUaBkqz472BS0mqUFKJfdoiHlejAesAZpjRFWDlEJRTKrx2CMesAooGlQVSEGAsuTvSCY3eo51QJGgJkOKUnJZ8tcobQe6VQugKFCTIEU5j0LRgUxu9BRUjqHdpSkmHYaUQhE6zLSPBnSe5wfn3KMskI3wthaohyBlyR8ipLSZs1BheVpD5bLmo+8hSEFCEUv+yOmbBzKMoF+99y+Lu62DGg0pSihiyR8JLQFoDaBGQcqSP4KE9EDuEfS8L1ZH1N2QohxIJReZ9vXYRuXXam744RH3kmcsgroLUiq59SR7jS21AqjVR99dkFIoqjH162izNUAtgnoTUhCgLPmrgyFoK60Cag3Uq5CilFyW/EFzvwrj1gG1BOpFSFFOpFBUBUPQRqJyK1Yk2tvJ0mLSJqRAoejBey/LIvLXqQdqA9TCiPoJUtRdg6v8dUrlqtuomz9qBC3xHtV7/3R+3U+QgoSiISwszEy14YFlcef/1uVx6KadTqc/wGL2Xe9BU/uIGsRWN5q788W3P0AKEopS/cLzsR54ka9B0KuyI3Mrt84BBvVTDfs7pKiSP2x+0bqWB+Szqq1HLS374zg+O+e+a9nL9Yh7qb1IUOd5/jCavkGKnitoB4b2MB5Agop41M09guaao5736w1ShAMxaUSraA+c38W1rnc6nWYtW2KnNKBLXxAjaph+vL8FcRxFNVOnflsoFV5zILACKArUTyMpaq5Qf7r22wPEaKoFqTVAEaB+mpNqOa/flG6v5wgQNNRdRLs0o6f06Puprt1pzxU0O01bZTxwPifSaEVqAlsHVGtE3RLvBFLYC2aN4NJGfg+ggDg6mqLag/Jswg1p8+swgfT3MAz3qAbTbn0emKbp5ieMR3sVC2ptgCaMqBc/3xR199E5JzsX80cPiAfg3/qGnJPChmvr3b6Gx+73Vf1qDM9OYfbqSpl8T1pj5IFtzjVyySPhMAzfVlVIb8CGGm+pKW7mayn58if0dXlilb7KTUhuQL9u1U8vFUccTYGJX5Fprn1sMFjr2l2CajBAGZtEQDM6O+ZSW1/B3JorxNjnsXV4gIAajtOllRm+O+e+hYk9ZDMbwz7ppWnLnOgJ/ZlaLw5F9fP/K+S1CDogu74AAAAASUVORK5CYII=;" vertex="1" parent="6o1rjcuHU60eiY54TzUB-68">
          <mxGeometry x="-9.410000000000014" y="106.2" width="34.95" height="30" as="geometry" />
        </mxCell>
        <mxCell id="6o1rjcuHU60eiY54TzUB-71" value="" style="shape=image;verticalLabelPosition=bottom;labelBackgroundColor=default;verticalAlign=top;aspect=fixed;imageAspect=0;image=data:image/png,iVBORw0KGgoAAAANSUhEUgAAAMgAAADICAYAAACtWK6eAAAAAXNSR0IArs4c6QAAElVJREFUeF7tnTGPG7sRx4e65yJAiqR7ge905yIfIB8g8LkIkHRJFx8C2PcRAuQBAVLYh1QBUqRJ7TMQy694RYA06SwD+QAp0lu+kxGXD0gTICcxXq1kraTlckjOcLnkXHcQuUv+h78dzpDLVSB/ooAoYFRAiTaigChgVkAAkdEhCnQoIIDI8BAFBBAZA6KAnwLiQfx0k1qFKCCAFGJo6aafAgKIn25SqxAFBJBCDC3d9FNAAPHTTWoVooAAUoihpZt+CgggfrpJrUIUEEB6MPTNxcnT6rYa9KkC9V6N9OzkL/NpD02RW1oUEEAiDZEaiuUzAHXWeksNU1B6tlgurh58/XEWqVlyGwGk3zFQg6FfuLRCAzxfLu9eCiguqvGUFQ/Co+vqqjePj9+AgnOvW2iYLvTdpUDipR5ZJQGETMrdCwXB8flSqynXI4GEyUiIywogCJFci9DAsbmrQOKqP2V5AYRSTQB4f3H87JOoz2kvK5DQ6om/mgCC18pa8vZXx+d6CW+sBX0KSEzio1pwHQEkWML6Au9++eXZ0eiLd0SXa71Mld06ncyvOO8h195VQAAhGhE8U6vDxi2Wdw8kaCcyGuIyAghCJFuRGN5j2waJR2z2oPxdACFQ8+bi/gsAtdo+EuNPploxVK7vIYAEah3Xe2wbK1OtQMMhqwsgSKFMxWLFHgf31zAdv54/Cmy+VLcoIIAEDpGbi+NPM56+/tTleHJ73dfdS7ivABJgZdZ1D1S7JGBHyRRQSAAJEK+36VWjzRKwBxgQUVUAQYhkKkK758q/IRKw+2tnqymA2BQy/N5X9qq1ORKwe1rRXk0AsWvUWqL/+GO3WTLV8jSkZLF4hEsh/thDRN4dYTC1eBBPUVOJP5rNFy/iacyOagKIp6b9rn+YGy0Bu6dBDdUEEA89kwrQ99svAbuHRc1VBBAPOZMGZHXelrw34mHW1ioCiIeS6QXoB25EAnYPu7ZVEUA8hEwfEPEiHmYVD0IlWooZrLa+ScAebnHxIB4apprBOuiKHPTgYd3dKgKIo4T0AbqeGc/rdWxbW3EJ2MNEFEAc9aPdYqJn48mHBzcX999xQlLiVKuy093d3edDwH0PuhBAHAEhDdDXaxa1Vzp6wwVJzl5k8ykJgOVDgOocZMPp+ZWdNUy1guloBG+xn5sQQHoEpDlwScFr6VNOXmT9KQk7EF221TBVR3BlA0UAcQSEMoO1/2RnnWoNOGAnAcJgZ5t3FUBcASF8B12N4FHzCcbtRWyDwVEKtuKcQLgmMgQQBzNTZ7DGk/mB/qxeBABSnGpVQKw+R6fh3Pt7Kg52bF0x33tYbcoIIA7C+nwtynz5OoO1/3spAfvWS8Q7cK/T1IZNngKIAyC0UyB9PZ58uGy7Pe19Du/QhxeJPW1yMOvnom26CCAOSnIG6PvN4J1q8R8XNAQgDk1/eM6YAOICCGOAvt8Mbi9CHbB/jiNAP+Vaz3EwlWfRQ68ugCCljBGgx/UiYQF7vaOgWpSrFugSiSOQtjQVa3toCCBIUWkBaQ/QUw/YhzltQhrY8KKZAILUj3bKgwOkahrtfd0C9tyB2FdDPAgSBu7Mkuv8nzdgr6daVZ+PRvfOUXuaAnRMuWrbupR4EKTFYmawYgfsSAkyL9bu1QUQpNkpX5La32KCaQIloJj7lVbG5NUFEMRIoA3QAdpcua0Z3Cvstvvn/bs5JhRAEJbneEkKcduDItwBu0+bcqjTFRMKIAgLkw7MwIPduAN2hByZFenOKAogCHNTAuKawZKAHWGggCK2eFAAQYhLGyCHf1eQtj0IATItgnlYCSAI4/edwdpvogTsCKPZiiCnugKIRcgUMlhtTaSc9tnGUn6/43cyCCAW68d4Scp3AErA7qecLe5oXlUAsWhM+6Q2vyTlY2ratvm0gLKOvgYYvQWtn3C+dusCR9U7AcTmQR4fv6EyGCYodB1yww3YayAWy/9NN4e6UU9n97X00V8AsQES8SUpVziq8sMJ2PW1BjUzHdrG3g9kUL5vAwGkY1RSP9F8tphgoElzqlWdOQzTykuMJ7fXtn6wekJPOGSKFTWDhc+c2AZT2+9pBOyH0yZMX1jhgDDdxYN0WJD0yRzwFMMMMtK2Ym64KuMHRPPyvO3WMzVSl7bjRbu6K4B0qEP5VPYJENHjdF2Q90lMA0SzT7SbQA/Vcs1YtektgLSoslr7IE43xgCEPNDVMAVVxRK4OMIFaG44AMK39EgM0rAo90l/FE8zzAAMn7KET5ts7aROfuzfj/JhVLQH4YaiaTiuDFZ4wM4PRLONKzjUFy+o1pYO+k8c6xUHCMf0yfbEhMBMiv36uyW6t8fEBWK/7bxxUljGqtgYZO0pnvV24h/xUw0DTD3V0k9BqxlXHIFpR7PMzcX9F3yHzNHDkW0Mktp5TpRzYtdBmUr58NiouydcMV42U6zUoNg1J01GJZXB7toO7owVFxyD9yBpQ7EdRn18bsB1EHOV585YUaVzTf0fnAeJmXmiGTQ8c2OatvFehR8O2tcHBhukDw+KptTlAsKasYqU+EjWg/STjuV4ovI/5ThaHXpNVjgips2TAaR2x6vDk/tLx4aOipb6JWawhpjOTTIGGUqQHcINZ4YlpF1cdWnf4T9sZWw9o3uQEqDYmrWs+GPI6dzePUjtduG8t9Vsrkem8br6Wo3Uy5B3EaI3OeCG3BmrvqaqrB4kn0AbO3LqfU6YV0yxVxxCOW44qhezTJ/M5taHBZCVq13AM7Ydm9yqOF2/LE/RJg1rxipSOjfKFKsMMOrDCBbLxdXmuBonnjIrzApHxHQuOyDc2Yt+x1W/W8T77bv57rwbEMPfJ6fQjWSKxfsUoeimzzUEii7VuB+IsdO5bB4kLzgECsyjJMd0LgsgvCumGFNRlCkz8+SrHHfGqq90LjkgvPNPX/Nh60nmCatUs9zQ3if36eN+He8YhPKjMhQdsV9DX0vmya5SZ9xBeJD3wX16TueSepBheA+JJ8Jw2K3NG2umuyXHy4NQnjhIaUSKozBp25PH1bgfiKlkrNqs5QwId5DmPqTEU7hrhq9RUsaKBBDu/DfOdJJ5wukUVoobDu73ycN6X9d29iD9AlL26SAUBsdeg3+m0N8GRKwGXoBwz0e7Gy/pWRfjhpRlDcoTzVjlM8VanTquXja/bxcyGKTurgLcD8EhHYPkPMXin5e6DlfxKq6K2cqz2nhA3sNrilVVSjLNK17FNu6dfue0cdYeZAUI54qqkxkNhTVM1RFclfK6K4Vk+9fgnGaltt+qSz/nKVbtQU6eAujqHfO0/8SrBNlHvIhHmnejOKd4QVY1VRav4iyreJEAQDjFc7akSwXxKi5qscabQ4hFvKZYG4UHC8mmA+JVrLBwTqeHEIsEAZJsRstq9r0C4lU6FeOcTqfuRYIBIf/0sOvgpi4vXuVAUdZ1kR7PvMIMnWBAqptkB0nVKQ1TrWC6XN69lON9eNe+UvYiJIBkC8lerHJ3dzcrFRZWL5Lw6joZIINN/2L8bAOUkr0K7yEdae7UJgdkHbjnf1B1gbEK61Q6US/CAkhjyvUs+xPd16CUMv0qzYuwAbKZlQztvN5PuXn3t8jWQX0J+79YvQjo2WK5eJRSnMcOyFBBcQlNNmVTPnzApz+mOpwLxKktHkYDZAeUpX6S49RrPJlH15Ny4GOvVZIX6c2ga5EzilHSPdsJO/BdypXiRXoDpGmM9XcLB/5127IA4d5mlMriYRKA0MUp3iG2y8OzvWyiacrwjpmvUIIXSQqQIccpqQWXnGDsev/777g+zJqCF0kSkI0BzHFKj57CMPJKBSR3L5I0IF1xSnqIpLlVIoYnyXk7/GAAoYtTeIZMKWsgberl7EUGB8ghKPqMaw7sglIpayAmTXL1IoMF5CCgV+qnoOFLl0FNV7a8FO++dpyv5laftRhPPlzS2Qt/pcED0uzq7OLkNwr07xTA9/ASYEpq0KA69mgJILmui2QFyGao13Ni/dR/6lUDUf2hBOp5DaTaEFq1te8dxTm+VIWyP+YZm1qZ2ljV4XbqzN62OifmmxnrM8V78JmC9avCoxG87eNkSc7t8H2si2QLyAYKs8Fs06ZdrLrg6QsQzDc8tNbfjI7Un2N5l9y8SPaA1HPj6qjU5e81qGOODveR4sV+klkr+FbpdUzW8C6cwHB6kdhfpeIYL/YZTQ8l3j8+/rdSPFmuPgDBHiCuNXw09pvp5JactsMXA8jtxf3/aFDf5WAz9hoIFo5tXxHRVXV4XhWJHcEVhXfhXDyM6UWKAeTm4rgaJQF/pkEWN8XrM31B4HGoS+B0LBcvIoAEIFNXjQcI71PZIoTH8ayc7Y2VGCkCEEy2x5uTSGsg4SvVXn6kXRYH78K3BSXOAQ8CiDcZa/8B8Px0Mr8KvExndYrUKSEexulY2zGtQ/ciRQBCMcBMI5jb1XO2nQ3qvbPC+LwIAPfiYRGAhE9PzEOJM8VLPzVk9SPG6Rgovh3X3A8oAQTxGO0aVlyA0MNRHViP3FuG0CSdIryxiAASaGmONRDsKnlg0zOqzvc2ZxGA8AWKPCle94VAl7GeoR9hzCQKIKixFW+RkBeOXKdZfMF6EYD4rD7vcmMAhPjJxQ0H6lkw2EI80ywBJGBAUGZQ+KaBbR3McJrF9FpuGYA8Pn4DClZv3VH+UQHCmYYuBY/qm5Lj1/NHlPatriWABChKkeId5EJggGacVTkyigJIgMVCAekXjvymWQKI52Dm2uoQYhCOhUBPebKpFmIPkwhleJALjgOW/ddAeOHQoDV8A0r9K+xkl6Fx42+Prp4KIN7jwM8g3Kvk1Su2p6/nP9h0a326i+GLXjlNs/zsYTN/IYCEvE1IuwbCs9bx+diib08n8++bjL46P2up/8b16rFtsHH+TpVR3G+jAGK1WjsgPgahh2N7dJEG6ISj2c2VV9H6iQb1888nnlh1SLtAaMKk8BgkxIO0S+cKCD0c23a5wLHfmwqW5RIeKg3nnNvSefHimV6Vsw4SfGDDoXldnljhW12a99/1aAr03cnkwz2qAbj9rj3fOxxUbd1cx/Vh5XL/7KdYXBkjLCCUq+T7kz1qOIzeJeicY5fh6FOWz3sU4UG4AMHk3DkXAis4lIKvjl99+JPPsHKtszsVo9+249qeujzvy1ICiJ9VUEf90MBhTsOOlP51LDjaZEphKob14t5mLmEvFo8H6XbrFHB0rVD0DUfbVEwvtWGtJWR4muvGgEM8iLftzF884gFy29DU4Igft+iZGqnLWJ92kCC9ExK3NZCw4zbtq9qpw8GdQubMVpmGgQBCCIjvWocdjdV7CX84mcx/6+30Eqi4u+1lNYHBfNzoGmD0djy5ve6jCwKIh+pt819fOHC3V38dT25/gSs7nFI1MOpMgz5ttlqBel/93xcUu20Zjp5eLeWICfYBcYcD4zPWiUyAf55O5j/y6rxUClZAPIiHhM01ENdVcjwaVTYZPo4bO3M9mipVAhUQQJwF3KZ4OQ9aCNlf5dwlqWBUQAAxSGN+0teA4LeQOPmMVWsEjnSIFUCcbaGv1Ui91Et4Y6vqjsbqiv8dT+bfsV1bfo+jgADiqvPqS0tse5EEDld7MJcXQIwC+zz/ferUDag2H94tFz988PXHGbPN5fIOCmQPSKVF+Ac8bYpu3+yzlWz7vYIDRuonsbZP+LSx1DoCSKDl/X3G9sZD20ISKNmgqgsg3uaiQANA4PA2QJSKhQBCeS5W2HSqaVWBI8oYD7qJAOIgH43P2ATlw9986CDdYIuWAQjT6e7eVlf6evzqw6V3fakYTQEBpFXqja+g9Blrz6Hg7yev5j+LZmG5UZACZQBycf8FgHqKV4ouzti9p/rHeHL7Y3w7pGTfChQBCOemQrwBBQ68VumUFECi2CLPF56iSNfzTYoAhOKUEV875fCqrG/fc6gngDBaUeBgFDfSpYsAhOO1W5t9lqC+Opvc/tFWTn5PW4EiAKlMwL9hcWvoWIeapT208mhdOYBEWiwUOPIAY9OLYgDhT/XGPfEvr2GYbm+KAYQ3kyVwpDvEw1pWDCBsgbqG6fj1/FGYGaR2qgoUAwhHoN7HWbGpDqRc21UYIK57ssxml2A8VyR2+1UUIDRxCP9XjcoYesPoZVGArKZZAelemVINY1BTtrI4QPy8iHgNykE3pGsVB0gdrGNjET3ToK5PJ/OrIRlV2kqnQJGArL8E9cz8EpWAQTfEhn2lIgGpTFZDcu8cYPkQtDoDpVcnGi6Wiys53XDYg5qy9f8H6vLUX5SdqS8AAAAASUVORK5CYII=;" vertex="1" parent="1">
          <mxGeometry x="920" y="170" width="50" height="50" as="geometry" />
        </mxCell>
        <mxCell id="6o1rjcuHU60eiY54TzUB-72" value="" style="shape=image;verticalLabelPosition=bottom;labelBackgroundColor=default;verticalAlign=top;aspect=fixed;imageAspect=0;image=data:image/png,iVBORw0KGgoAAAANSUhEUgAAAMgAAADICAYAAACtWK6eAAAAAXNSR0IArs4c6QAAD8dJREFUeF7tXf2d3TYOlCqJrxO7g7cVJKnEdiVJKlh1cC7FV8m74560P62sDxIYQgQx+6ct6pEDDIEhSGoc+EcEiMAhAiOxIQJE4BgBEoTeQQROECBB6B5EgAShDxABGQKMIDLc2CoIAiRIEENzmDIESBAZbmwVBAESJIihOUwZAiSIDDe2CoIACRLE0BymDAESRIYbWwVBgAQJYmgOU4YACSLDja2CIECCBDE0hylDgASR4cZWQRAgQRo09OPx+DRN088GuxauSyRIQyZPxBiG4fdxHL8Nw/Dz+Xz+PU3T94a6GK4rJEgjJn88Hl9nYmx7lIjyfZqmvxvpaqhukCA3m/vxeHwex/GvYRhS9Dj7S0T5c5qmHzd3OdTPkyA3mTulUzMxPhd04S3tGobhH2qUAtQUj5IgCvAkTTc6Q/KK1Ib6RIpcYTsSpBAwzeMnOkP6WhJFilxmOxIkEyjNYwU6Q/oz1CdS5C7akSCVgE2vFeoMcY9mfZJWvFhDEaP4sSEJAgJy/RqQzpD2jGmXFLmddiQIEMw5ahzVM3J/6a3uMQzDb+M4/pGx/Hv0XhIlF/GT50gQAIhAYnyonIMiEfWJwsYkiAK8lc74t2KmH57P57ezLSUIolCfyAxNgshwexPgwzCkdCqlQdK/H3N1PEtUA0Q/065CS5EghYAhZvO50CfeNvJ4PP4Yx/GrImqRKJl2J0EygaqlMwp+/sOjQKJyIyRFutQN/98OUei70hnSHgKJIo5o0r57aMcIcmIlQM6f3l6kM6ROg+grhfyv6JMgOx7peVamPpFOMfvtSJANLoANhbcLYCDBw59oJEFmgrSsM6RzIpAoYfVJeIKAcvfTQp/UwVHtEDWbqPokLEGAs+sXL7tn58lAU/W/PX1ETRq57wlJEJDOcJl2rCYGboTMYEkogoCI0YVwBUbQrguNIQgCSC0uNxRmTEZNPgIiikmt5w4AuyYIQoBbFfruMP76NwFYdXnjSpcEAc2KIc9RsND4carqjiDUGfpYBJxg3Ou1bgjSY6FP7+q6NwCJ4nLFL6HnniCA3DkJ8HRbIW8DOeBTZIzdEoSzmy46SFpH1CcuCQLSGV2v30sIkNMGODG50CeuCDLPYOkmdOlfuK0SUqCu2gGJ0vRWHRcEAeXATW8ovHLIVv9fuxHy+XwmgjT7SYemCaIFf3aqbqu8LZFGOomRIAIrAsO32+VFAWy3N5FshCRBCs0GEuAuBGAhNG4eL5ngSJBMs7LQlwmUo8cuiOJiK8/tGkSau278hDqjYeJsbOzqo6S3EaQkDJ/Y3sUs1LDvmnYtLdN7+1rvLQShzjD1S/6YAgFTglBnKCzFph8QSL6U/qF2DcWEIAidkTYUTtP0J/0kNgI7vlRVf5oQ5OXl5akwK3WGArxemmasiFVZ2m+ZIK5WO3pxxBbHkalZf76+vv4L3f8mCVLrJnQ0eHxfXQQKNWsogvAAU13fa/rtQs0ahyCz9bg1vWk3xndOWRvzS5A5h5Te5Eei4H2xuTdm6oyzfvslSBqVcnZIr+BqVnNure8Q4BDc0gnfBFlGoSUKL1jQO2ULbxDqjH4jyHZkSoCYdrXg5YI+gA7B7f1yHxFkhyiaTxqTKAInvasJQGfEiSDrkWrTrlmf8JaSuzz/4neVxHgrGKefGMfx7MKOPiMImChV9+U06n/NdmtOo6Uf7PmQHWSI+f4Jshby82zxtmOz8K/LW8YLMbj1ca3O2NtJQYLsmLRwq8H2DdQnxjQBpMqHGQAJcmBMyU0Zm1dx06MBUQA64/QGGhLkWuh9Gobh93EcvwntzUKjELizZlZRngTJNJ4yjFOfZOJ89ZiyjlX8STsS5Moim/9XGoj6pBDv9QKKMpKLVhpJELnBWGgUYlfarLbOuEjlkp1j10FKDQac1ahPTsC30hkkiJQBme2U+oRfmsKmscU6gwTJdHTtY9QnOgQBEw38UxPUIDqb7rZWfjIspJC/U2eEjyCrXHbJ+X9W4MWHV2pnwygHtQA6o+pm0a4jyEHKY1qT0BKl14NaXtLRrglycXGcaSqj3Ehn2tea0RUwYcB1xtF4M23mdzdv5s2KpnumkFuxazpyjXcrdYao0CcdR0FfuyfIgqFZTQK0EdLNZ94AOsNsrIK+hiFIIgr1iXTK3WnnRWekriv6Goog62hS5VLiPf9T5uXN6RPleKCFviu+a/uaJtUwd/PugGnqfIpZ7D36TdP0do76rr+C3H2vi63qjCM4q+nXJi+vPnEqM30yh3vtRkiznH3BLGM59Iyz1vh+njcgprM+or/aF517I8gbiJY1CW3ot+qrp6in7OviAybLzC4JMk815mmX4hxEtb5m1ggOZ+faM/D6h7WTzfwu0/TPM0FuE/LaG1dQ+kSjMyyJMaerXxXHpRdtZ56yNkGQ5/OZvj34mycAARshxXuXNMSYl9C/TNNUfR/cTAytzqgWfXNETysESQb7oU0XvOmTYRiK0gVA9V9Myhxn2qZTikhrqjPOxtYUQVYrMZ/GcZTeyLeE427qJ8qJw3QG9qgz3BFkDs3LNT/SD+/cRZSUa6c+l/794shaZ6POKDXBr883GUEqrHxYr++nCJguGJBenZqKjBpNVpS6ad1IWXsxn8hKxts8QdZpl2KZdclpzT4OOs/+SaB+HYZBXAgrMab14S5P9YxCHN8fd0OQjT6Rzs7ms5U2Tco0rDudYZ3+ZeL4y2PuCLIiimYbSDdEsXY05RLzgrvZMrOUGEs7twTZCHnpfb2LwcwKUIi0ZDaetc5wWegLTRCv+mQmtzQCelpwMI/UWkJs27uOINvBKOsF5sYs1Cd36AzpkvWyKGKyoRBNivX7uiJIr0LeUmcUkvbIN03TPxJEgADgvPkSUUy3Z/xvN//7rG1JjDntC6kzztyrywiyHrDHGTFdWJBqGoYbCr1t7Vk2QKazQVUXWLonCFDIm2oAQdAsbgLQbObn1g92KFRL6VohiJmYAyyzuicKIqpapn+Z/f3x+vr6pXiWuGjQBEHmPpo6nvI8h7k+QRneW6GvoL/dE2TxAbN1/syZ6co3U3+brwwLLmLbjtvMLvOCQelBqzAEWdbQrTcWar+gm/r7j5WwvmKt5yVv4U7oWAS5Ke1Ku241xTHTNPGMJIjo2KDOOBuyX4LMeaSrg0/CWWydJpqdaNzZUaCtZ1RbFdrz8AKd0SdB5pxyOSHoaWOhdL+UuZ4S5u1364yrL9fmZpLpOb8RBF24s7qMDUXs2v31tnQN6O8ecfogiGfxqDzRCNcnTnWGRuP1m2IdjQxUjzDL9wGzH4Qo2rzdUoDPkViri67Srb4iCDrtuuE89i36BFTPMKvbaIm8+lbMf+aFkyOi9EuQddqlTGPexNq8ga36zYGgFCer3gOKXKY7k5F3m2XcnNI/QTZE0eSqkDTmKqYDiX3YXwAJ78BCY7vdDZAkyI43gmZNU32ijIAfnFmbnljqDACRT6M/CXIwXXs9+KQtNM5wSO/TMkszQQL8cp8XCXKRz4BmKNONhYAVutwsz3NhMivCkyCZrgAgiqsv6GbCYq4zlBGy+KAVCZLpCYELjbsI9aQzzlyABCkkyIooiHpEVpgXdvFDM8DCw9v7LIlhpTNIEISHHax2KVeP0lsvhSKy+wp9Yq2jSg8ubWGCpH+MIADvc6xPco4CVPsW+B70gEgHIcYmU0iXlh/9xSkUarkCuK0Datyr8VwQu6W+XA2lWvoXJoIkZ7A6ljrPgm4/5eZQZ1Srv4QgyKoybJbvAwuNVS8oW0/Nc58Hw4kEoTOq4tM1QY52oNY+SLTjdJqLGdLKUdbGwqw8pIGHWtMZYVexXl5enieD95Zjm/a3Bo8Aixmmy8yZRPYr0i8IsviAqeNlgn7mn6b9RRFFuwGy4eME3RNkTZSq+ewm9UIUGs36KyUK6KCV2TgFRA5DkMUHqq2IbJ0MlHI0qU+8RUrFymM4gizVbdNtIMqKfDNpF4D0pmMB1K78EkSxreI2feL5hkVBevIhqFrWXwBErrpNyOR29zQCIBDezlVb5u3ai9jM0trZJ7Q3nVSPcmYEWe2pQd2waHIzB6LQWLt+AtIZlkTWFibNlpnNCbIhiuZwv7eDT/DZDhCV4X26KPalT72lDYfpE3OiP8v0L3XwNoKsiYK8HkaEekGjVpwyoM4wTf8Wl7idIBt9krPt+8idvc2Gov1oWmJYFvqAOsMs/ds6VxMEqaBPzADVrtDl6pOAOsN0wjuadZsiCJAo3egTQH3A1NEARDYT4DmZdZME2egTjagzdw5UoRGgdUwdDdFf6/TPPUFWREHsl7KuyKtW6IZhkF4aZ0qMHnTGGVGajiDrjoNmKJEwzplp9p4BbBAs/WnTlR7A+EwjfCmYTSzzlnYaQZRcYVzatwOSLIVRzQrdVVesie+unnEFoCuRnjMYj+JVqU/2YDGdgUGT07dpmr7n2LiFZ9ykWEdgeQvzCCdLWFhXlL3VX1Dkck8QcKHRsn4iTVM86gwzXFHEWN7TBUGA9RPzixkKCo3edIZp+ocmRpcEARLF1Li8OK6We+vf21UE2cIBqOreShTqDL2Da9/QNUFWEQVRaDTLoy1vn5w1nPaglWn6p3X6kvYhCLIR8t9KAFo/a1k/kfaxpJ23CFsyNtSzYQjiVZ+gDL1+D6CGZL7MXAOHnHeGI8iGKKr9UimieCp6zZFUdQ7cWhflOHHNZ8ISZEUU7floF/k3oNCXxmlyD0BNhy99d3iCbPSJeL9Uq/oEpDPMFihKHbj28yTICmHANhDTZeEz5wDojGbGUpsEZ+8nQXbQ8UwUQN/DCPAc4pEgJyiB0hPLi+5UArzFE305TlzzGRIkA92C/VJHb6u6wRC0ozmszmCKlUGCq0cAqQv8IglQhHO3VH1lK+T/M4IUookiiqZ+AugDdUam3UmQTKC2j4Fm72J9oq1nRCv0Cc373owEUSJolf+DfidcoU9p3vvv5tUOoIX2gBvgD/UJKFJRgAsdhRFECNxeM4A2eC/OId8FHGK4V5EgFUyOcG5PF8dVgLCZV5IgFU0BSI9Ke1e13lLamR6eJ0EMrAgoNF710sWO4qtBtPj/JIiRVQBp115PuaGwsv1IkMoA79VPEDcssp5hYzgSxAbnX35Fqk9IDFuDkSC2eO8RJfdEY8gTfTebh4XCuw2Qfv+i0EgBfqORGEFuBP9Cn1CAN2AbEqQBI+wRZZqmnw12LVyXSJBwJueASxAgQUrQ4rPhECBBwpmcAy5BgAQpQYvPhkOABAlncg64BAESpAQtPhsOARIknMk54BIESJAStPhsOARIkHAm54BLECBBStDis+EQIEHCmZwDLkGABClBi8+GQ4AECWdyDrgEARKkBC0+Gw4BEiScyTngEgRIkBK0+Gw4BP4LnIWKqgim3lgAAAAASUVORK5CYII=;" vertex="1" parent="1">
          <mxGeometry x="780" y="262.53" width="47.47" height="47.47" as="geometry" />
        </mxCell>
      </root>
    </mxGraphModel>
  </diagram>
</mxfile>
